<svg xmlns="http://www.w3.org/2000/svg" viewBox="0 0 160 50"><defs><style>.cls-1{fill:#f90;}.cls-2,.cls-3{fill:#fff;}.cls-3{fill-rule:evenodd;}</style></defs><g id="Layer_2" data-name="Layer 2"><g id="Layer_1-2" data-name="Layer 1"><rect width="160" height="50" rx="5"/><path class="cls-1" d="M36.81,35.58c-12.1,5.76-19.62.94-24.42-2-.3-.18-.81,0-.37.55,1.6,1.94,6.85,6.62,13.71,6.62a16,16,0,0,0,11.44-4.39C37.68,35.72,37.32,35.36,36.81,35.58Z"/><path class="cls-1" d="M40.21,33.7c-.33-.42-2-.5-3-.38s-2.6.76-2.46,1.15c.07.14.21.08.92,0s2.73-.32,3.15.22-.64,3.18-.84,3.6.07.53.43.25a5.54,5.54,0,0,0,1.39-2C40.2,35.47,40.46,34,40.21,33.7Z"/><path class="cls-2" d="M33.75,26.43V16.79c0-1.66-1.61-5.4-7.37-5.4s-8.82,3.6-8.82,6.84l4.81.43s1.08-3.24,3.56-3.24a2.09,2.09,0,0,1,2.32,2.45V20c-3.19.1-11.1,1-11.1,7.69,0,7.18,9.06,7.48,12,2.84a3.49,3.49,0,0,0,.41.54c1.09,1.15,2.55,2.52,2.55,2.52l3.72-3.67S33.75,28.23,33.75,26.43Zm-5.5-.79c0,5.26-5.51,4.46-5.51,1.13,0-3.08,3.3-3.71,5.51-3.78Z"/><path class="cls-2" d="M53.63,10.09h1.49l3.1,8H56.71L56,16H52.75L52,18.13H50.55Zm-.5,4.84h2.46l-1.21-3.45h0Z"/><path class="cls-2" d="M58,12.31h1.39l1.48,4.46h0l1.42-4.46h1.32l-2.08,5.82H60.14Z"/><path class="cls-2" d="M69.31,16.83a.71.71,0,0,0,.06.34.25.25,0,0,0,.24.1h.14l.18,0v.89l-.17.05-.22,0-.23,0h-.19a1.28,1.28,0,0,1-.65-.15.77.77,0,0,1-.34-.56,2.26,2.26,0,0,1-.94.54,3.46,3.46,0,0,1-1.07.17,2.68,2.68,0,0,1-.76-.1,2.08,2.08,0,0,1-.63-.32,1.42,1.42,0,0,1-.44-.53,1.6,1.6,0,0,1-.17-.75,1.7,1.7,0,0,1,.2-.87,1.47,1.47,0,0,1,.52-.53,2.3,2.3,0,0,1,.72-.28c.27-.05.53-.1.8-.13l.67-.09a2.71,2.71,0,0,0,.55-.1.77.77,0,0,0,.39-.21.57.57,0,0,0,.14-.42.63.63,0,0,0-.12-.4.86.86,0,0,0-.29-.25,1.6,1.6,0,0,0-.39-.11l-.41,0a1.63,1.63,0,0,0-.89.23.88.88,0,0,0-.39.7H64.34a1.89,1.89,0,0,1,.27-.94,2,2,0,0,1,.6-.59,2.44,2.44,0,0,1,.83-.32,4.83,4.83,0,0,1,.94-.09,4,4,0,0,1,.85.09,2.54,2.54,0,0,1,.74.29,1.61,1.61,0,0,1,.54.53,1.46,1.46,0,0,1,.2.78ZM68,15.21a1.5,1.5,0,0,1-.72.23c-.29,0-.57.07-.86.12a1.86,1.86,0,0,0-.39.1,1.19,1.19,0,0,0-.34.16,1,1,0,0,0-.23.29,1,1,0,0,0-.08.42.56.56,0,0,0,.12.36,1,1,0,0,0,.3.23,1.89,1.89,0,0,0,.38.12l.38,0a2,2,0,0,0,.46-.06,1.45,1.45,0,0,0,.47-.19,1.29,1.29,0,0,0,.36-.34.85.85,0,0,0,.15-.51Z"/><path class="cls-2" d="M70.73,10.09H72v1.22H70.73Zm0,2.22H72v5.82H70.73Z"/><path class="cls-2" d="M73.44,10.09h1.28v8H73.44Z"/><path class="cls-2" d="M81,16.83a.71.71,0,0,0,.06.34.25.25,0,0,0,.24.1h.14l.18,0v.89l-.18.05-.22,0-.22,0H80.8a1.32,1.32,0,0,1-.66-.15.79.79,0,0,1-.33-.56,2.26,2.26,0,0,1-.94.54,3.47,3.47,0,0,1-1.08.17,2.66,2.66,0,0,1-.75-.1,2.26,2.26,0,0,1-.64-.32,1.4,1.4,0,0,1-.43-.53,1.6,1.6,0,0,1-.17-.75,1.7,1.7,0,0,1,.2-.87,1.39,1.39,0,0,1,.52-.53,2.3,2.3,0,0,1,.72-.28c.26-.05.53-.1.8-.13l.66-.09a2.81,2.81,0,0,0,.56-.1.74.74,0,0,0,.38-.21.53.53,0,0,0,.14-.42.7.7,0,0,0-.11-.4.81.81,0,0,0-.3-.25,1.41,1.41,0,0,0-.38-.11l-.41,0a1.61,1.61,0,0,0-.89.23.88.88,0,0,0-.39.7H76a1.89,1.89,0,0,1,.27-.94,1.78,1.78,0,0,1,.6-.59,2.46,2.46,0,0,1,.82-.32,5,5,0,0,1,1-.09,3.93,3.93,0,0,1,.84.09,2.49,2.49,0,0,1,.75.29,1.71,1.71,0,0,1,.54.53,1.46,1.46,0,0,1,.2.78Zm-1.28-1.62a1.5,1.5,0,0,1-.72.23c-.29,0-.57.07-.86.12a1.72,1.72,0,0,0-.39.1,1.19,1.19,0,0,0-.34.16.82.82,0,0,0-.23.29.87.87,0,0,0-.09.42.57.57,0,0,0,.13.36,1,1,0,0,0,.3.23,1.89,1.89,0,0,0,.38.12l.38,0a2,2,0,0,0,.46-.06,1.32,1.32,0,0,0,.46-.19,1.2,1.2,0,0,0,.37-.34.85.85,0,0,0,.15-.51Z"/><path class="cls-2" d="M82.41,10.09h1.28v3h0a1.7,1.7,0,0,1,.33-.38,2.09,2.09,0,0,1,.42-.29,2.15,2.15,0,0,1,.48-.18,2.2,2.2,0,0,1,.5-.06,2.79,2.79,0,0,1,1.2.24,2.35,2.35,0,0,1,.85.67A2.78,2.78,0,0,1,88,14a4.3,4.3,0,0,1,.17,1.2A4.35,4.35,0,0,1,88,16.38a3,3,0,0,1-.47,1,2.14,2.14,0,0,1-.78.68,2.28,2.28,0,0,1-1.11.25,3.9,3.9,0,0,1-.59,0A2.1,2.1,0,0,1,84,17.8a1.46,1.46,0,0,1-.37-.47h0v.8H82.41Zm4.47,5.13a2.78,2.78,0,0,0-.1-.76,2,2,0,0,0-.3-.66,1.5,1.5,0,0,0-.51-.46,1.31,1.31,0,0,0-.69-.18,1.4,1.4,0,0,0-1.22.57,2.42,2.42,0,0,0-.42,1.49,3,3,0,0,0,.11.82,1.88,1.88,0,0,0,.32.65,1.48,1.48,0,0,0,.51.42,1.61,1.61,0,0,0,1.44,0,1.6,1.6,0,0,0,.5-.47A2,2,0,0,0,86.8,16,3.08,3.08,0,0,0,86.88,15.22Z"/><path class="cls-2" d="M89.28,10.09h1.28v8H89.28Z"/><path class="cls-2" d="M93,15.55a2.37,2.37,0,0,0,.09.65,1.7,1.7,0,0,0,.29.55,1.37,1.37,0,0,0,.48.38,1.68,1.68,0,0,0,.7.14,1.56,1.56,0,0,0,.91-.24,1.42,1.42,0,0,0,.51-.73h1.21a2.37,2.37,0,0,1-.34.85,2.72,2.72,0,0,1-.6.62,2.36,2.36,0,0,1-.78.38,3.36,3.36,0,0,1-2.12-.09,2.52,2.52,0,0,1-.9-.63,2.64,2.64,0,0,1-.55-1,4,4,0,0,1-.18-1.24,3.5,3.5,0,0,1,.19-1.17,2.9,2.9,0,0,1,.57-1,2.55,2.55,0,0,1,.88-.67,2.81,2.81,0,0,1,2.4,0,2.68,2.68,0,0,1,.91.76,3,3,0,0,1,.52,1.08,3.18,3.18,0,0,1,.08,1.27Zm3-.84a2.3,2.3,0,0,0-.13-.59,1.59,1.59,0,0,0-.29-.49,1.37,1.37,0,0,0-1-.47,1.56,1.56,0,0,0-.62.12,1.43,1.43,0,0,0-.47.33,1.64,1.64,0,0,0-.31.49,1.75,1.75,0,0,0-.13.61Z"/><path class="cls-2" d="M104,18.28a3.1,3.1,0,0,1-1.25-.23,2.6,2.6,0,0,1-.92-.63,2.77,2.77,0,0,1-.57-1,3.91,3.91,0,0,1,0-2.47,2.72,2.72,0,0,1,.57-1,2.76,2.76,0,0,1,.92-.64,3.28,3.28,0,0,1,1.25-.23,3.22,3.22,0,0,1,1.24.23,2.76,2.76,0,0,1,.92.64,2.9,2.9,0,0,1,.58,1,4.11,4.11,0,0,1,0,2.47,3,3,0,0,1-.58,1,2.6,2.6,0,0,1-.92.63A3,3,0,0,1,104,18.28Zm0-1a1.47,1.47,0,0,0,.74-.18,1.67,1.67,0,0,0,.52-.47,2.47,2.47,0,0,0,.3-.66,3.08,3.08,0,0,0,.09-.75,3.12,3.12,0,0,0-.09-.74,2.22,2.22,0,0,0-.3-.66,1.67,1.67,0,0,0-.52-.47,1.63,1.63,0,0,0-1.49,0,1.54,1.54,0,0,0-.51.47,1.81,1.81,0,0,0-.3.66,2.69,2.69,0,0,0-.1.74,2.66,2.66,0,0,0,.1.75,2,2,0,0,0,.3.66,1.54,1.54,0,0,0,.51.47A1.49,1.49,0,0,0,104,17.27Z"/><path class="cls-2" d="M108,12.31h1.22v.85l0,0a2.05,2.05,0,0,1,.76-.76,2,2,0,0,1,1-.28,2.18,2.18,0,0,1,1.51.5,1.91,1.91,0,0,1,.55,1.48v4h-1.28V14.47a1.63,1.63,0,0,0-.3-1,1.08,1.08,0,0,0-.84-.31,1.41,1.41,0,0,0-.59.12,1.27,1.27,0,0,0-.43.33,1.39,1.39,0,0,0-.28.49,1.67,1.67,0,0,0-.11.59v3.44H108Z"/><path class="cls-3" d="M84.11,28.73V27.41a.32.32,0,0,1,.33-.33h5.91a.32.32,0,0,1,.34.33v1.13a1.78,1.78,0,0,1-.45.83l-3.06,4.37a6.51,6.51,0,0,1,3.37.72.61.61,0,0,1,.32.52v1.4a.31.31,0,0,1-.44.3,6.8,6.8,0,0,0-6.24,0c-.2.11-.42-.12-.42-.31V35.05a1.54,1.54,0,0,1,.22-.9l3.55-5.09H84.45A.32.32,0,0,1,84.11,28.73Z"/><path class="cls-3" d="M62.56,37h-1.8a.33.33,0,0,1-.32-.3V27.43a.34.34,0,0,1,.35-.33h1.67a.34.34,0,0,1,.33.31v1.2h0a2.47,2.47,0,0,1,4.7,0,2.65,2.65,0,0,1,4.56-.69,4.88,4.88,0,0,1,.45,2.89v5.82a.34.34,0,0,1-.34.33h-1.8a.33.33,0,0,1-.32-.33V31.74A12.41,12.41,0,0,0,70,30,.94.94,0,0,0,69,29.22a1.19,1.19,0,0,0-1.07.75,5.47,5.47,0,0,0-.17,1.77v4.89a.34.34,0,0,1-.35.33H65.58a.33.33,0,0,1-.32-.33V31.74c0-1,.17-2.54-1.1-2.54s-1.25,1.47-1.25,2.54v4.89A.34.34,0,0,1,62.56,37Z"/><path class="cls-3" d="M95.78,26.91c2.66,0,4.11,2.29,4.11,5.2s-1.6,5-4.11,5-4-2.29-4-5.15S93.18,26.91,95.78,26.91Zm0,1.88c-1.32,0-1.41,1.81-1.41,2.93s0,3.53,1.4,3.53,1.46-1.94,1.46-3.12A8.74,8.74,0,0,0,97,29.68,1.13,1.13,0,0,0,95.79,28.79Z"/><path class="cls-3" d="M103.35,37h-1.8a.33.33,0,0,1-.32-.33V27.4a.33.33,0,0,1,.34-.3h1.67a.34.34,0,0,1,.32.26v1.41h0A2.43,2.43,0,0,1,106,26.91a2.36,2.36,0,0,1,2.1,1.08,5.89,5.89,0,0,1,.47,2.88v5.8a.34.34,0,0,1-.34.29h-1.8a.33.33,0,0,1-.32-.29v-5c0-1,.11-2.48-1.13-2.48a1.17,1.17,0,0,0-1,.74,4.09,4.09,0,0,0-.28,1.74v5A.35.35,0,0,1,103.35,37Z"/><path class="cls-3" d="M109.74,36.23a.86.86,0,0,1,.88-.84.84.84,0,1,1,0,1.68A.86.86,0,0,1,109.74,36.23Z"/><path class="cls-2" d="M128.78,37a.34.34,0,0,1-.34-.33V27.41a.35.35,0,0,1,.33-.31h.66a.34.34,0,0,1,.34.31v1.34a2.83,2.83,0,0,1,2.45-1.9h.14A2.49,2.49,0,0,1,134.7,29a3,3,0,0,1,2.67-2.12h.14a2.47,2.47,0,0,1,2.14,1.42,6.33,6.33,0,0,1,.41,2.81v5.55a.34.34,0,0,1-.33.33h-.79a.33.33,0,0,1-.33-.28v-5.6a4.77,4.77,0,0,0-.23-2,1.62,1.62,0,0,0-1.36-1,2.07,2.07,0,0,0-1.58,1.1,4.26,4.26,0,0,0-.47,2.45v5a.33.33,0,0,1-.32.28h-.78a.34.34,0,0,1-.34-.33V30.71a3.81,3.81,0,0,0-.29-1.67,1.67,1.67,0,0,0-1.35-.94,2.09,2.09,0,0,0-1.48,1,3.91,3.91,0,0,0-.52,2.26v5.31a.33.33,0,0,1-.32.33Z"/><path class="cls-2" d="M123.36,37.16c-2.55,0-3.69-2.6-3.69-5.2s1.35-5.11,3.91-5.11h.14c2.5,0,3.74,2.52,3.74,5.13s-1.38,5.18-4,5.18h-.14Zm.19-1.26a2.15,2.15,0,0,0,1.89-1.42,6,6,0,0,0,.42-2.52,5.68,5.68,0,0,0-.53-2.7,2.19,2.19,0,0,0-1.78-1.17,2.17,2.17,0,0,0-1.86,1.4,6.42,6.42,0,0,0-.42,2.47,6.54,6.54,0,0,0,.49,2.69A2.12,2.12,0,0,0,123.55,35.9Z"/><path class="cls-2" d="M115.4,35.86c1.14,0,1.74-1,2-2.15a.35.35,0,0,1,.33-.26h.76a.32.32,0,0,1,.33.31c-.35,2-1.57,3.4-3.32,3.4h-.13c-2.53,0-3.62-2.54-3.62-5.13s1.1-5.18,3.64-5.18h.13c1.76,0,3,1.36,3.29,3.38a.33.33,0,0,1-.31.3h-.79a.35.35,0,0,1-.3-.32c-.19-1.13-.84-2-1.92-2.07-1.73.06-2.22,2.18-2.22,3.81S113.67,35.8,115.4,35.86Z"/><path class="cls-3" d="M79.4,32.56a3.53,3.53,0,0,1-.34,1.9,1.45,1.45,0,0,1-1.24.82c-.69,0-1.1-.53-1.1-1.3,0-1.53,1.38-1.81,2.68-1.81Zm1.81,4.38a.36.36,0,0,1-.42,0,4.4,4.4,0,0,1-1-1.2,3.54,3.54,0,0,1-3,1.31,2.55,2.55,0,0,1-2.69-2.8A3.06,3.06,0,0,1,76,31.35a12.08,12.08,0,0,1,3.38-.62v-.24a2.32,2.32,0,0,0-.22-1.3,1.21,1.21,0,0,0-1-.47,1.37,1.37,0,0,0-1.44,1.08c0,.17-.15.33-.32.33L74.67,30a.33.33,0,0,1-.27-.38c.4-2.11,2.31-2.75,4-2.75a4.08,4.08,0,0,1,2.71.89c.87.82.79,1.91.79,3.1v2.8a2.43,2.43,0,0,0,.68,1.66c.11.17.14.36,0,.48l-1.38,1.19Z"/><path class="cls-3" d="M55.84,32.56a3.53,3.53,0,0,1-.34,1.9,1.46,1.46,0,0,1-1.24.82c-.69,0-1.1-.53-1.1-1.3,0-1.53,1.38-1.81,2.68-1.81Zm1.81,4.38a.38.38,0,0,1-.43,0,4.52,4.52,0,0,1-1-1.2,3.54,3.54,0,0,1-3,1.31,2.55,2.55,0,0,1-2.69-2.8,3.06,3.06,0,0,1,1.92-2.94,12,12,0,0,1,3.38-.62v-.24a2.32,2.32,0,0,0-.22-1.3,1.21,1.21,0,0,0-1-.47,1.38,1.38,0,0,0-1.45,1.08c0,.17-.14.33-.31.33L51.11,30a.33.33,0,0,1-.27-.38c.4-2.11,2.31-2.75,4-2.75a4.08,4.08,0,0,1,2.71.89c.87.82.79,1.91.79,3.1v2.8A2.43,2.43,0,0,0,59,35.27c.11.17.14.36,0,.48l-1.38,1.19Z"/></g></g></svg>