<svg xmlns="http://www.w3.org/2000/svg" viewBox="0 0 33.33 40"><defs><style>.cls-1{fill:#4caf50;}</style></defs><g id="Layer_2" data-name="Layer 2"><g id="Layer_1-2" data-name="Layer 1"><path class="cls-1" d="M2.5,13.34A2.5,2.5,0,0,0,0,15.84V27.5a2.5,2.5,0,0,0,5,0V15.84a2.5,2.5,0,0,0-2.5-2.5Z"/><path class="cls-1" d="M30.83,13.34a2.5,2.5,0,0,0-2.5,2.5V27.5a2.5,2.5,0,0,0,5,0V15.84a2.5,2.5,0,0,0-2.5-2.5Z"/><path class="cls-1" d="M25.83,13.34H7.5a.83.83,0,0,0-.83.83V27.5A4.17,4.17,0,0,0,10,31.59V37.5a2.5,2.5,0,0,0,5,0V31.67h3.33V37.5a2.5,2.5,0,0,0,5,0V31.59a4.18,4.18,0,0,0,3.33-4.09V14.17a.83.83,0,0,0-.83-.83Z"/><path class="cls-1" d="M22.72,3.46l2-2A.83.83,0,1,0,23.59.23l0,0L21.21,2.62a11.4,11.4,0,0,0-9.09,0L9.75.25a.82.82,0,0,0-1.17,0,.82.82,0,0,0,0,1.16l2,2a8.77,8.77,0,0,0-3.94,7.38.83.83,0,0,0,.83.83H25.83a.83.83,0,0,0,.83-.83A8.79,8.79,0,0,0,22.72,3.46ZM12.5,8.34a.84.84,0,0,1-.84-.83.85.85,0,0,1,.84-.84.84.84,0,0,1,.83.84A.83.83,0,0,1,12.5,8.34Zm8.33,0A.84.84,0,0,1,20,7.51a.85.85,0,0,1,.84-.84.84.84,0,0,1,.83.84A.83.83,0,0,1,20.83,8.34Z"/></g></g></svg>