<svg xmlns="http://www.w3.org/2000/svg" viewBox="0 0 32.81 40"><g id="Layer_2" data-name="Layer 2"><g id="Layer_1-2" data-name="Layer 1"><path d="M10.88,40C4.92,40,0,27.81,0,21.62,0,11.51,7.58,9.3,10.51,9.3a12.06,12.06,0,0,1,4,1,9,9,0,0,0,2.26.65,7.39,7.39,0,0,0,1.63-.53,12.92,12.92,0,0,1,4.89-1.18h0a10,10,0,0,1,8.4,4.24l.61.92-.88.66a7.41,7.41,0,0,0-3.55,6.12,6.92,6.92,0,0,0,3.85,6.38c.55.33,1.12.67,1.12,1.42,0,.49-3.9,11-9.56,11A7.78,7.78,0,0,1,20,39.16a6.47,6.47,0,0,0-2.88-.7,7.39,7.39,0,0,0-2.28.62,11.12,11.12,0,0,1-3.94.92Z"/><path d="M23.85,0C24,5.32,20.2,9,16.4,8.78,15.77,4.53,20.2,0,23.85,0Z"/></g></g></svg>