<svg xmlns="http://www.w3.org/2000/svg" viewBox="0 0 160 50"><defs><style>.cls-1{fill:#fff;}</style></defs><g id="Layer_2" data-name="Layer 2"><g id="Layer_1-2" data-name="Layer 1"><rect width="160" height="50" rx="5"/><path class="cls-1" d="M33.73,24.69a7,7,0,0,1,3.34-5.9,7.19,7.19,0,0,0-5.67-3.06c-2.38-.25-4.69,1.43-5.91,1.43s-3.11-1.4-5.12-1.36A7.55,7.55,0,0,0,14,19.67c-2.75,4.76-.7,11.74,1.93,15.59,1.32,1.88,2.85,4,4.87,3.91s2.7-1.26,5.08-1.26S29,39.17,31,39.12s3.45-1.89,4.72-3.79a15.36,15.36,0,0,0,2.15-4.39A6.8,6.8,0,0,1,33.73,24.69Z"/><path class="cls-1" d="M29.85,13.2a6.89,6.89,0,0,0,1.58-4.95,7.06,7.06,0,0,0-4.56,2.35,6.65,6.65,0,0,0-1.62,4.78A5.85,5.85,0,0,0,29.85,13.2Z"/><path class="cls-1" d="M62.23,38.9H59.48L58,34.16H52.73L51.29,38.9H48.61l5.2-16.13H57Zm-4.71-6.73L56.15,28c-.14-.43-.41-1.44-.81-3h-.05c-.16.69-.41,1.7-.77,3l-1.34,4.21Z"/><path class="cls-1" d="M75.59,32.94A6.61,6.61,0,0,1,74,37.63a4.68,4.68,0,0,1-3.56,1.53,3.57,3.57,0,0,1-3.31-1.65h0v6.13H64.48V31.09c0-1.24,0-2.52-.09-3.82h2.27l.14,1.84h0a4.61,4.61,0,0,1,7.36-.46A6.43,6.43,0,0,1,75.59,32.94ZM73,33a4.81,4.81,0,0,0-.76-2.8,2.66,2.66,0,0,0-2.25-1.15,2.71,2.71,0,0,0-1.74.64,2.87,2.87,0,0,0-1,1.66,3.37,3.37,0,0,0-.12.79v1.94a3.12,3.12,0,0,0,.77,2.14,2.61,2.61,0,0,0,2,.88A2.64,2.64,0,0,0,72.14,36,5,5,0,0,0,73,33Z"/><path class="cls-1" d="M89,32.94a6.61,6.61,0,0,1-1.6,4.69,4.7,4.7,0,0,1-3.57,1.53,3.56,3.56,0,0,1-3.3-1.65h0v6.13H77.86V31.09c0-1.24,0-2.52-.1-3.82H80l.14,1.84h0A4.3,4.3,0,0,1,84.15,27a4.34,4.34,0,0,1,3.44,1.62A6.47,6.47,0,0,1,89,32.94ZM86.33,33a4.74,4.74,0,0,0-.77-2.8,2.63,2.63,0,0,0-2.24-1.15,2.71,2.71,0,0,0-1.74.64,2.94,2.94,0,0,0-1,1.66,3.37,3.37,0,0,0-.12.79v1.94a3.08,3.08,0,0,0,.78,2.14,2.59,2.59,0,0,0,2,.88A2.66,2.66,0,0,0,85.52,36,5,5,0,0,0,86.33,33Z"/><path class="cls-1" d="M103.92,34.37a4.27,4.27,0,0,1-1.43,3.35,6.33,6.33,0,0,1-4.4,1.42,7.72,7.72,0,0,1-4.18-1l.6-2.15a7.16,7.16,0,0,0,3.74,1,3.51,3.51,0,0,0,2.27-.66,2.15,2.15,0,0,0,.82-1.77,2.28,2.28,0,0,0-.67-1.65,6.33,6.33,0,0,0-2.23-1.25q-4.23-1.58-4.23-4.62a4.08,4.08,0,0,1,1.48-3.26,5.84,5.84,0,0,1,4-1.27,7.82,7.82,0,0,1,3.66.76l-.65,2.11a6.27,6.27,0,0,0-3.08-.74,3.11,3.11,0,0,0-2.13.67,1.91,1.91,0,0,0-.65,1.46,2,2,0,0,0,.74,1.58,8.49,8.49,0,0,0,2.35,1.24,7.89,7.89,0,0,1,3.06,2A4.14,4.14,0,0,1,103.92,34.37Z"/><path class="cls-1" d="M112.47,29.2h-2.85v5.65c0,1.44.5,2.16,1.51,2.16a4.52,4.52,0,0,0,1.14-.12l.07,2a5.78,5.78,0,0,1-2,.29,3.11,3.11,0,0,1-2.39-.94,4.58,4.58,0,0,1-.86-3.13V29.2h-1.7V27.27h1.7V25.14l2.54-.77v2.9h2.85Z"/><path class="cls-1" d="M125.32,33a6.39,6.39,0,0,1-1.53,4.4,5.48,5.48,0,0,1-4.27,1.77,5.2,5.2,0,0,1-4.07-1.7,6.15,6.15,0,0,1-1.52-4.28,6.34,6.34,0,0,1,1.56-4.43A5.44,5.44,0,0,1,119.72,27a5.28,5.28,0,0,1,4.11,1.7A6.13,6.13,0,0,1,125.32,33Zm-2.68.08a5.19,5.19,0,0,0-.7-2.76,2.54,2.54,0,0,0-2.32-1.39,2.58,2.58,0,0,0-2.37,1.39,5.37,5.37,0,0,0-.69,2.81,5.28,5.28,0,0,0,.69,2.76,2.61,2.61,0,0,0,2.35,1.39,2.57,2.57,0,0,0,2.32-1.42A5.21,5.21,0,0,0,122.64,33.07Z"/><path class="cls-1" d="M133.72,29.54a4.32,4.32,0,0,0-.82-.07,2.42,2.42,0,0,0-2.1,1,3.85,3.85,0,0,0-.65,2.29V38.9h-2.58l0-8c0-1.34,0-2.56-.1-3.66h2.26l.09,2.22h.07a4,4,0,0,1,1.29-1.84,3.11,3.11,0,0,1,1.87-.62,4.28,4.28,0,0,1,.65,0Z"/><path class="cls-1" d="M145.28,32.53a6.38,6.38,0,0,1-.1,1.17h-7.75a3.39,3.39,0,0,0,1.12,2.64,3.87,3.87,0,0,0,2.54.81,8.47,8.47,0,0,0,3.13-.55l.41,1.79a9.7,9.7,0,0,1-3.9.72,5.66,5.66,0,0,1-4.25-1.59,5.86,5.86,0,0,1-1.54-4.27,6.69,6.69,0,0,1,1.43-4.38A5,5,0,0,1,140.44,27a4.32,4.32,0,0,1,3.81,1.87A6.32,6.32,0,0,1,145.28,32.53Zm-2.47-.67a3.49,3.49,0,0,0-.5-2,2.28,2.28,0,0,0-2.06-1.07,2.46,2.46,0,0,0-2.06,1.05,3.87,3.87,0,0,0-.76,2Z"/><path class="cls-1" d="M56.66,12.84a4,4,0,0,1-1.28,3.22,5.08,5.08,0,0,1-3.37,1A16.39,16.39,0,0,1,50.15,17V9.17A13.57,13.57,0,0,1,52.34,9a4.71,4.71,0,0,1,3.13.9A3.64,3.64,0,0,1,56.66,12.84Zm-1.34,0a2.88,2.88,0,0,0-.73-2.13A2.92,2.92,0,0,0,52.44,10a5.86,5.86,0,0,0-1,.08V16a7.94,7.94,0,0,0,.86,0,3,3,0,0,0,2.25-.81A3.24,3.24,0,0,0,55.32,12.88Z"/><path class="cls-1" d="M63.76,14.09A3.12,3.12,0,0,1,63,16.25a2.69,2.69,0,0,1-2.09.87,2.59,2.59,0,0,1-2-.83,3.09,3.09,0,0,1-.74-2.11A3.07,3.07,0,0,1,58.94,12,2.63,2.63,0,0,1,61,11.16,2.6,2.6,0,0,1,63,12,3,3,0,0,1,63.76,14.09Zm-1.31,0a2.57,2.57,0,0,0-.35-1.36A1.25,1.25,0,0,0,61,12.09a1.28,1.28,0,0,0-1.16.68,2.62,2.62,0,0,0-.34,1.38,2.57,2.57,0,0,0,.34,1.36,1.3,1.3,0,0,0,2.29,0A2.54,2.54,0,0,0,62.45,14.13Z"/><path class="cls-1" d="M73.29,11.28,71.5,17H70.34l-.75-2.48c-.18-.62-.34-1.23-.46-1.84h0a13,13,0,0,1-.46,1.84L67.87,17H66.69L65,11.28h1.3L67,14c.16.65.29,1.26.39,1.84h0c.1-.48.25-1.09.47-1.82l.81-2.73h1L70.46,14a19,19,0,0,1,.46,1.88h0A14.68,14.68,0,0,1,71.35,14L72,11.28Z"/><path class="cls-1" d="M79.87,17H78.6V13.72c0-1-.38-1.51-1.15-1.51a1.17,1.17,0,0,0-.92.41,1.51,1.51,0,0,0-.35,1V17H74.91V12.91c0-.5,0-1,0-1.63H76l.06.89h0a1.82,1.82,0,0,1,.66-.69,2.19,2.19,0,0,1,1.15-.32,1.79,1.79,0,0,1,1.33.52,2.5,2.5,0,0,1,.66,1.89Z"/><path class="cls-1" d="M83.37,17H82.11V8.66h1.26Z"/><path class="cls-1" d="M90.85,14.09a3.12,3.12,0,0,1-.75,2.16,2.69,2.69,0,0,1-2.09.87,2.59,2.59,0,0,1-2-.83,3.09,3.09,0,0,1-.74-2.11A3.07,3.07,0,0,1,86,12a2.63,2.63,0,0,1,2.07-.85,2.6,2.6,0,0,1,2,.84A3,3,0,0,1,90.85,14.09Zm-1.32,0a2.57,2.57,0,0,0-.34-1.36,1.25,1.25,0,0,0-1.14-.68,1.28,1.28,0,0,0-1.16.68,2.62,2.62,0,0,0-.34,1.38,2.57,2.57,0,0,0,.34,1.36,1.3,1.3,0,0,0,2.29,0A2.54,2.54,0,0,0,89.53,14.13Z"/><path class="cls-1" d="M97,17H95.86l-.09-.66h0a2,2,0,0,1-1.67.79,1.7,1.7,0,0,1-1.3-.52,1.61,1.61,0,0,1-.45-1.16,1.78,1.78,0,0,1,.87-1.6,4.55,4.55,0,0,1,2.47-.54v-.11c0-.75-.4-1.12-1.19-1.12a2.68,2.68,0,0,0-1.49.42l-.25-.84a3.72,3.72,0,0,1,2-.49c1.49,0,2.24.79,2.24,2.36v2.11A9.51,9.51,0,0,0,97,17Zm-1.32-2v-.88c-1.4,0-2.1.36-2.1,1.15a.87.87,0,0,0,.24.67.91.91,0,0,0,.62.22,1.33,1.33,0,0,0,.78-.26,1.06,1.06,0,0,0,.44-.68A.72.72,0,0,0,95.68,15Z"/><path class="cls-1" d="M104.22,17h-1.13l-.06-.91h0a1.92,1.92,0,0,1-1.84,1,2.13,2.13,0,0,1-1.71-.81,3.12,3.12,0,0,1-.68-2.1A3.28,3.28,0,0,1,99.51,12a2.26,2.26,0,0,1,1.76-.8,1.71,1.71,0,0,1,1.61.78h0V8.66h1.27v6.79C104.17,16,104.19,16.52,104.22,17Zm-1.32-2.41v-.95a2.17,2.17,0,0,0,0-.4,1.46,1.46,0,0,0-.46-.77,1.24,1.24,0,0,0-.85-.31,1.32,1.32,0,0,0-1.12.56,2.44,2.44,0,0,0-.41,1.45,2.3,2.3,0,0,0,.39,1.38,1.33,1.33,0,0,0,1.11.56,1.24,1.24,0,0,0,1-.47A1.59,1.59,0,0,0,102.9,14.58Z"/><path class="cls-1" d="M115.08,14.09a3.12,3.12,0,0,1-.75,2.16,2.67,2.67,0,0,1-2.09.87,2.59,2.59,0,0,1-2-.83,3.09,3.09,0,0,1-.74-2.11,3.07,3.07,0,0,1,.77-2.17,2.63,2.63,0,0,1,2.07-.85,2.58,2.58,0,0,1,2,.84A3,3,0,0,1,115.08,14.09Zm-1.31,0a2.66,2.66,0,0,0-.34-1.36,1.27,1.27,0,0,0-1.14-.68,1.29,1.29,0,0,0-1.17.68,2.62,2.62,0,0,0-.34,1.38,2.57,2.57,0,0,0,.34,1.36,1.28,1.28,0,0,0,1.15.68,1.26,1.26,0,0,0,1.14-.69A2.54,2.54,0,0,0,113.77,14.13Z"/><path class="cls-1" d="M121.91,17h-1.27V13.72c0-1-.38-1.51-1.15-1.51a1.15,1.15,0,0,0-.91.41,1.47,1.47,0,0,0-.36,1V17H117V12.91c0-.5,0-1,0-1.63H118l.06.89h0a1.87,1.87,0,0,1,.65-.69,2.2,2.2,0,0,1,1.16-.32,1.82,1.82,0,0,1,1.33.52,2.49,2.49,0,0,1,.65,1.89Z"/><path class="cls-1" d="M130.46,12.23h-1.4V15c0,.7.25,1,.74,1a2.26,2.26,0,0,0,.57-.06l0,1a3,3,0,0,1-1,.14,1.5,1.5,0,0,1-1.18-.46,2.25,2.25,0,0,1-.42-1.54V12.23H127v-1h.84v-1l1.24-.37v1.42h1.4Z"/><path class="cls-1" d="M137.19,17h-1.27V13.74c0-1-.39-1.53-1.15-1.53a1.21,1.21,0,0,0-1.22.89,2,2,0,0,0-.05.46V17h-1.27V8.66h1.27V12.1h0a1.91,1.91,0,0,1,1.72-.94,1.74,1.74,0,0,1,1.3.52,2.6,2.6,0,0,1,.65,1.91Z"/><path class="cls-1" d="M144.12,13.87a3.18,3.18,0,0,1,0,.57h-3.81a1.62,1.62,0,0,0,.55,1.29,1.88,1.88,0,0,0,1.25.4,4.26,4.26,0,0,0,1.54-.27l.2.89a4.88,4.88,0,0,1-1.92.35,2.78,2.78,0,0,1-2.09-.78,2.9,2.9,0,0,1-.75-2.1,3.27,3.27,0,0,1,.7-2.15,2.41,2.41,0,0,1,2-.92,2.11,2.11,0,0,1,1.87.92A3,3,0,0,1,144.12,13.87Zm-1.21-.33a1.72,1.72,0,0,0-.24-1,1.12,1.12,0,0,0-1-.53,1.21,1.21,0,0,0-1,.52,1.89,1.89,0,0,0-.37,1Z"/></g></g></svg>