<svg xmlns="http://www.w3.org/2000/svg" viewBox="0 0 160 50"><defs><style>.cls-1{fill:#fff;}</style></defs><g id="Layer_2" data-name="Layer 2"><g id="Layer_1-2" data-name="Layer 1"><rect width="160" height="50" rx="5"/><rect class="cls-1" x="24.04" y="25.02" width="1.67" height="12.08"/><polygon class="cls-1" points="24.84 38.31 20.09 33.08 21.32 31.96 24.9 35.9 28.45 32.35 29.63 33.53 24.84 38.31"/><path class="cls-1" d="M32.79,29.6H29V27.94h3.75a3.75,3.75,0,0,0,0-7.5h-1.5l.16-1a4.9,4.9,0,0,0,.09-.9A5.2,5.2,0,0,0,21.6,16.4l-.32.7-.72-.26a2.74,2.74,0,0,0-.9-.15A2.7,2.7,0,0,0,17,19.4a1.48,1.48,0,0,0,0,.21l.06.76-.74.13A3.75,3.75,0,0,0,17,27.94h3.75V29.6H17A5.41,5.41,0,0,1,15.3,19a4.39,4.39,0,0,1,4.36-4,3.64,3.64,0,0,1,.74.07,6.88,6.88,0,0,1,12.81,3.47c0,.08,0,.15,0,.23a5.41,5.41,0,0,1-.41,10.81Z"/><path class="cls-1" d="M49.72,25.12V15.94H52.5q4.88,0,4.87,4.47A4.45,4.45,0,0,1,56,23.85a5,5,0,0,1-3.55,1.27Zm1.42-8V23.9h1.25A3.44,3.44,0,0,0,54.94,23a3.4,3.4,0,0,0,.93-2.55A3.2,3.2,0,0,0,55,18a3.57,3.57,0,0,0-2.56-.84Z"/><path class="cls-1" d="M58.77,16.31a.78.78,0,0,1,.24-.58.85.85,0,0,1,.6-.23.9.9,0,0,1,.62.23.78.78,0,0,1,.24.58.77.77,0,0,1-.24.58.9.9,0,0,1-.62.23.85.85,0,0,1-.6-.23A.78.78,0,0,1,58.77,16.31Zm.13,8.81V18.56h1.4v6.56Z"/><path class="cls-1" d="M66,19.89a1.47,1.47,0,0,0-.81-.2,1.29,1.29,0,0,0-1.1.59,2.69,2.69,0,0,0-.42,1.58v3.26H62.26V18.56h1.39v1.31h0a1.78,1.78,0,0,1,1.72-1.42,1.5,1.5,0,0,1,.58.09Z"/><path class="cls-1" d="M72.37,22.22H67.86a1.82,1.82,0,0,0,2,2,3.24,3.24,0,0,0,2-.65V24.7a4.06,4.06,0,0,1-2.3.58,3,3,0,0,1-2.29-.89,3.54,3.54,0,0,1-.82-2.49,3.63,3.63,0,0,1,.88-2.51,2.91,2.91,0,0,1,2.23-1,2.6,2.6,0,0,1,2.06.84,3.39,3.39,0,0,1,.74,2.31ZM71,21.2a2,2,0,0,0-.39-1.29,1.33,1.33,0,0,0-1.08-.45,1.49,1.49,0,0,0-1.1.48,2.18,2.18,0,0,0-.58,1.26Z"/><path class="cls-1" d="M78.47,24.84a3.54,3.54,0,0,1-1.85.44,3.13,3.13,0,0,1-2.33-.91A3.25,3.25,0,0,1,73.4,22a3.57,3.57,0,0,1,1-2.62,3.38,3.38,0,0,1,2.54-1,3.55,3.55,0,0,1,1.58.31V20a2.49,2.49,0,0,0-1.51-.5,2,2,0,0,0-1.55.64,2.43,2.43,0,0,0-.6,1.73,2.31,2.31,0,0,0,.57,1.66,2,2,0,0,0,1.52.6,2.64,2.64,0,0,0,1.56-.53Z"/><path class="cls-1" d="M83.33,25.05a2.18,2.18,0,0,1-1.1.22c-1.25,0-1.87-.67-1.87-2V19.67H79.25V18.56h1.11V17l1.39-.42v1.95h1.58v1.11H81.75V23a1.44,1.44,0,0,0,.21.88.83.83,0,0,0,.7.28,1.08,1.08,0,0,0,.67-.22Z"/><path class="cls-1" d="M87.85,25.12V15.94h2.78q4.88,0,4.87,4.47a4.45,4.45,0,0,1-1.39,3.44,5,5,0,0,1-3.55,1.27Zm1.42-8V23.9h1.25A3.46,3.46,0,0,0,93.07,23,3.4,3.4,0,0,0,94,20.44,3.2,3.2,0,0,0,93.12,18a3.57,3.57,0,0,0-2.56-.84Z"/><path class="cls-1" d="M96.62,21.9a3.45,3.45,0,0,1,.93-2.55,3.33,3.33,0,0,1,2.51-.94,3.11,3.11,0,0,1,2.37.91,3.42,3.42,0,0,1,.87,2.48,3.5,3.5,0,0,1-.92,2.53,3.26,3.26,0,0,1-2.45,1,3.23,3.23,0,0,1-2.41-.92A3.36,3.36,0,0,1,96.62,21.9Zm1.42,0a2.52,2.52,0,0,0,.53,1.69,1.79,1.79,0,0,0,1.42.6c1.26,0,1.89-.77,1.89-2.33a2.64,2.64,0,0,0-.48-1.71,2,2,0,0,0-2.84,0A2.62,2.62,0,0,0,98,21.87Z"/><path class="cls-1" d="M113.54,18.56l-1.93,6.56h-1.45l-1.23-4.39a3.92,3.92,0,0,1-.1-.69h0a3,3,0,0,1-.13.67l-1.31,4.41h-1.43L104,18.56h1.45l1.19,4.71a3.74,3.74,0,0,1,.1.64h0a3.82,3.82,0,0,1,.12-.66l1.38-4.69h1.3l1.23,4.72a5.85,5.85,0,0,1,.1.64h0a4.09,4.09,0,0,1,.11-.64l1.17-4.72Z"/><path class="cls-1" d="M120.43,25.12H119v-3.7q0-1.89-1.38-1.89a1.43,1.43,0,0,0-1.14.52,1.92,1.92,0,0,0-.46,1.33v3.74h-1.39V18.56h1.39v1.08h0a2.35,2.35,0,0,1,2.14-1.23c1.46,0,2.2.9,2.2,2.7Z"/><path class="cls-1" d="M122.26,25.12v-9.7h1.39v9.7Z"/><path class="cls-1" d="M125.19,21.9a3.45,3.45,0,0,1,.93-2.55,3.33,3.33,0,0,1,2.51-.94,3.11,3.11,0,0,1,2.37.91,3.42,3.42,0,0,1,.87,2.48,3.45,3.45,0,0,1-.92,2.53,3.26,3.26,0,0,1-2.45,1,3.23,3.23,0,0,1-2.41-.92A3.36,3.36,0,0,1,125.19,21.9Zm1.42,0a2.52,2.52,0,0,0,.53,1.69,1.79,1.79,0,0,0,1.42.6c1.26,0,1.89-.77,1.89-2.33a2.64,2.64,0,0,0-.48-1.71,1.7,1.7,0,0,0-1.41-.59,1.73,1.73,0,0,0-1.43.62A2.62,2.62,0,0,0,126.61,21.87Z"/><path class="cls-1" d="M133.41,19a4.52,4.52,0,0,1,2.32-.59c1.65,0,2.48.86,2.48,2.57v4.14h-1.35v-1h0a2.18,2.18,0,0,1-2,1.15,2.15,2.15,0,0,1-1.52-.52,1.85,1.85,0,0,1-.56-1.41c0-1.23.73-2,2.2-2.16l1.9-.26c0-1-.42-1.46-1.28-1.46a3.46,3.46,0,0,0-2.17.76Zm2,3.08a1.85,1.85,0,0,0-1,.36,1,1,0,0,0-.29.78.9.9,0,0,0,.31.71,1.2,1.2,0,0,0,.81.27,1.51,1.51,0,0,0,1.16-.49,1.76,1.76,0,0,0,.46-1.25v-.58Z"/><path class="cls-1" d="M145.94,25.12h-1.38v-1h0a2.37,2.37,0,0,1-2.17,1.19,2.46,2.46,0,0,1-2-.89,3.63,3.63,0,0,1-.74-2.39,3.91,3.91,0,0,1,.83-2.61,2.73,2.73,0,0,1,2.17-1,2,2,0,0,1,1.9,1h0v-4h1.38Zm-1.37-3.84a1.71,1.71,0,0,0-.49-1.25,1.56,1.56,0,0,0-1.19-.5,1.6,1.6,0,0,0-1.34.64,2.84,2.84,0,0,0-.5,1.77,2.59,2.59,0,0,0,.47,1.63,1.55,1.55,0,0,0,1.27.59,1.57,1.57,0,0,0,1.28-.59,2.24,2.24,0,0,0,.5-1.49Z"/><path class="cls-1" d="M52.78,36.22a1.69,1.69,0,0,1-.83.17c-.94,0-1.4-.51-1.4-1.52V32.19h-.83v-.83h.83V30.21l1-.32v1.47h1.19v.83H51.59v2.49a1.08,1.08,0,0,0,.16.67.64.64,0,0,0,.52.2.84.84,0,0,0,.51-.16Z"/><path class="cls-1" d="M53.37,33.86A2.59,2.59,0,0,1,54.06,32a2.51,2.51,0,0,1,1.88-.7,2.37,2.37,0,0,1,1.78.67,3,3,0,0,1,0,3.76,2.46,2.46,0,0,1-1.84.71A2.4,2.4,0,0,1,54,35.7,2.51,2.51,0,0,1,53.37,33.86Zm1.06,0a1.86,1.86,0,0,0,.39,1.26,1.36,1.36,0,0,0,1.07.45c1,0,1.42-.58,1.42-1.74A2,2,0,0,0,57,32.52a1.47,1.47,0,0,0-2.13,0A2,2,0,0,0,54.43,33.84Z"/><path class="cls-1" d="M66,31.36l-2.17,5.56c-.43,1.11-1,1.66-1.86,1.66a2,2,0,0,1-.65-.08v-.88a1.24,1.24,0,0,0,.53.12.93.93,0,0,0,.87-.66l.34-.81L61.1,31.36h1.16l1.18,3.51a3.23,3.23,0,0,1,.12.47h0c0-.1.06-.25.12-.47l1.23-3.51Z"/><path class="cls-1" d="M66.38,33.86A2.59,2.59,0,0,1,67.07,32a2.51,2.51,0,0,1,1.88-.7,2.35,2.35,0,0,1,1.78.67,2.57,2.57,0,0,1,.65,1.86,2.66,2.66,0,0,1-.68,1.9,2.47,2.47,0,0,1-1.84.71,2.41,2.41,0,0,1-1.81-.69A2.55,2.55,0,0,1,66.38,33.86Zm1.06,0a1.82,1.82,0,0,0,.4,1.26,1.33,1.33,0,0,0,1.06.45c.95,0,1.42-.58,1.42-1.74A2,2,0,0,0,70,32.52a1.47,1.47,0,0,0-2.13,0A2,2,0,0,0,67.44,33.84Z"/><path class="cls-1" d="M76.76,36.27h-1v-.76h0a1.65,1.65,0,0,1-1.51.88c-1.16,0-1.74-.69-1.74-2.08v-3h1v2.82c0,.92.36,1.37,1.06,1.37a1.09,1.09,0,0,0,.85-.37,1.51,1.51,0,0,0,.32-1V31.36h1Z"/><path class="cls-1" d="M81,32.36a1.13,1.13,0,0,0-.61-.16.94.94,0,0,0-.82.45,2,2,0,0,0-.32,1.18v2.44h-1V31.36h1v1h0a1.34,1.34,0,0,1,1.29-1.06,1.29,1.29,0,0,1,.44.06Z"/><path class="cls-1" d="M85.29,33.76v2.51H84.23V29.39h2.08a2.66,2.66,0,0,1,1.79.54,2,2,0,0,1,.62,1.57A2.08,2.08,0,0,1,88,33.16a2.64,2.64,0,0,1-1.84.6Zm0-3.47v2.58h.77c1,0,1.54-.44,1.54-1.33s-.49-1.25-1.48-1.25Z"/><path class="cls-1" d="M94.69,36a4.21,4.21,0,0,1-1.92.39,3.16,3.16,0,0,1-2.4-.94,3.44,3.44,0,0,1-.9-2.48,3.7,3.7,0,0,1,1-2.65,3.38,3.38,0,0,1,2.57-1,4.38,4.38,0,0,1,1.65.27v1.08a3.27,3.27,0,0,0-1.61-.41,2.37,2.37,0,0,0-1.81.74,2.78,2.78,0,0,0-.68,1.94,2.7,2.7,0,0,0,.64,1.85,2.2,2.2,0,0,0,1.71.7A3.27,3.27,0,0,0,94.69,35Z"/></g></g></svg>