<svg xmlns="http://www.w3.org/2000/svg" viewBox="0 0 350 356.68"><defs><style>.cls-1{fill:#089de3;}.cls-2{fill:#4c4c4c;}</style></defs><g id="Layer_2" data-name="Layer 2"><g id="Layer_1-2" data-name="Layer 1"><path class="cls-1" d="M159.46,84.73a6.38,6.38,0,1,0,6.37,6.38A6.38,6.38,0,0,0,159.46,84.73Zm3,9.12a.72.72,0,0,1-.82.8h-2.73a2.2,2.2,0,0,1-2.46-2.51V88.38a.82.82,0,1,1,1.64,0v3.78a.74.74,0,0,0,.83.84h1.9V88.39a.74.74,0,0,1,.84-.83.72.72,0,0,1,.8.83Z"/><path class="cls-1" d="M150.42,94.71a.55.55,0,0,1-.55-.55v-7a5.6,5.6,0,0,1,5.59-5.59h11.86a.56.56,0,0,1,0,1.11H155.46A4.49,4.49,0,0,0,151,87.11v7A.54.54,0,0,1,150.42,94.71Z"/><path class="cls-1" d="M163.45,100.69h-12a.54.54,0,0,1-.55-.55.55.55,0,0,1,.55-.55h12a4.49,4.49,0,0,0,4.49-4.49V87.63a.55.55,0,0,1,1.1,0V95.1A5.59,5.59,0,0,1,163.45,100.69Z"/><path class="cls-1" d="M168.49,83.62A1.55,1.55,0,1,1,170,82.07,1.55,1.55,0,0,1,168.49,83.62Zm0-2a.45.45,0,1,0,.44.44A.44.44,0,0,0,168.49,81.63Z"/><path class="cls-1" d="M150.42,101.69a1.55,1.55,0,1,1,1.55-1.55A1.55,1.55,0,0,1,150.42,101.69Zm0-2a.45.45,0,1,0,.45.44A.44.44,0,0,0,150.42,99.7Z"/><path class="cls-2" d="M315.33,220.83H3.25A3.25,3.25,0,0,1,0,217.58V3.25A3.26,3.26,0,0,1,3.25,0H315.33a3.26,3.26,0,0,1,3.25,3.25V217.58A3.25,3.25,0,0,1,315.33,220.83ZM6.5,214.33H312.08V6.5H6.5Z"/><path class="cls-2" d="M315.33,182H3.25A3.25,3.25,0,0,1,0,178.79V3.25A3.26,3.26,0,0,1,3.25,0H315.33a3.26,3.26,0,0,1,3.25,3.25V178.79A3.25,3.25,0,0,1,315.33,182ZM6.5,175.54H312.08V6.5H6.5Z"/><path class="cls-2" d="M192.13,250.57H126.45a3.25,3.25,0,0,1-3.25-3.25V217.58a3.26,3.26,0,0,1,3.25-3.25h65.68a3.26,3.26,0,0,1,3.25,3.25v29.74A3.25,3.25,0,0,1,192.13,250.57Zm-62.43-6.5h59.18V220.83H129.7Z"/><path class="cls-2" d="M239.84,250.57H78.73a3.25,3.25,0,0,1,0-6.5H239.84a3.25,3.25,0,0,1,0,6.5Z"/><path class="cls-2" d="M159.29,208.09a9.9,9.9,0,1,1,9.9-9.9A9.91,9.91,0,0,1,159.29,208.09Zm0-15.47a5.57,5.57,0,1,0,5.56,5.57A5.58,5.58,0,0,0,159.29,192.62Z"/><path class="cls-2" d="M130.78,78.45V89.89a1,1,0,0,0,1-1V79.45A1,1,0,0,0,130.78,78.45Zm0-25.91V72a1,1,0,0,0,1-1V53.54A1,1,0,0,0,130.78,52.54Zm56,11.68v9.43a1,1,0,0,0,1,1V63.22A1,1,0,0,0,186.79,64.22Zm-56,33.89v28h2.68v-28Zm0-19.66V89.89a1,1,0,0,0,1-1V79.45A1,1,0,0,0,130.78,78.45Zm0-25.91V72a1,1,0,0,0,1-1V53.54A1,1,0,0,0,130.78,52.54Z"/><path class="cls-2" d="M187.8,63.22V42.46a5,5,0,0,0-5-5H135.75a5,5,0,0,0-5,5V52.54a1,1,0,0,1,1,1V71a1,1,0,0,1-1,1v6.42a1,1,0,0,1,1,1v9.44a1,1,0,0,1-1,1v8.22h2.68V42.46a2.29,2.29,0,0,1,2.29-2.29h7.76l.94,2.63a2.48,2.48,0,0,0,2.33,1.64h25a2.49,2.49,0,0,0,2.34-1.64l.94-2.63h7.75a2.29,2.29,0,0,1,2.3,2.29v97.12a2.3,2.3,0,0,1-2.3,2.3H135.75a2.3,2.3,0,0,1-2.29-2.3V126.15h-2.68v13.43a5,5,0,0,0,5,5h47.07a5,5,0,0,0,5-5V74.66a1,1,0,0,1-1-1V64.22A1,1,0,0,1,187.8,63.22Zm-23.18-21.7H154a.67.67,0,0,1,0-1.34h10.63a.67.67,0,0,1,0,1.34Zm4,.77A1.44,1.44,0,1,1,170,40.85,1.44,1.44,0,0,1,168.6,42.29Z"/><path class="cls-2" d="M188.81,64.22v9.43a1,1,0,1,1-2,0V64.22a1,1,0,0,1,2,0Z"/><path class="cls-2" d="M131.78,79.45v9.44a1,1,0,0,1-2,0V79.45a1,1,0,0,1,2,0Z"/><path class="cls-2" d="M131.78,53.54V71a1,1,0,1,1-2,0V53.54a1,1,0,0,1,2,0Z"/><path class="cls-2" d="M48.68,274.22h9a3.61,3.61,0,0,1,3.7,3.69v9a3.62,3.62,0,0,1-3.7,3.7h-9a3.61,3.61,0,0,1-3.69-3.7v-9C44.72,276.06,46.57,274.22,48.68,274.22Z"/><path class="cls-2" d="M75.05,274.22h9a3.61,3.61,0,0,1,3.7,3.69v9a3.62,3.62,0,0,1-3.7,3.7h-9a3.61,3.61,0,0,1-3.69-3.7v-9C71.09,276.06,72.94,274.22,75.05,274.22Z"/><path class="cls-2" d="M101.42,274.22h9a3.61,3.61,0,0,1,3.7,3.69v9a3.62,3.62,0,0,1-3.7,3.7h-9a3.61,3.61,0,0,1-3.69-3.7v-9A3.77,3.77,0,0,1,101.42,274.22Z"/><path class="cls-2" d="M127.79,274.22h9a3.61,3.61,0,0,1,3.7,3.69v9a3.62,3.62,0,0,1-3.7,3.7h-9a3.61,3.61,0,0,1-3.69-3.7v-9A3.77,3.77,0,0,1,127.79,274.22Z"/><path class="cls-2" d="M154.16,274.22h9a3.61,3.61,0,0,1,3.69,3.69v9a3.62,3.62,0,0,1-3.69,3.7h-9a3.61,3.61,0,0,1-3.69-3.7v-9A3.77,3.77,0,0,1,154.16,274.22Z"/><path class="cls-2" d="M180.53,274.22h9a3.6,3.6,0,0,1,3.69,3.69v9a3.61,3.61,0,0,1-3.69,3.7h-9a3.61,3.61,0,0,1-3.69-3.7v-9A3.77,3.77,0,0,1,180.53,274.22Z"/><path class="cls-2" d="M206.9,274.22h9a3.6,3.6,0,0,1,3.69,3.69v9a3.61,3.61,0,0,1-3.69,3.7h-9a3.61,3.61,0,0,1-3.69-3.7v-9A3.77,3.77,0,0,1,206.9,274.22Z"/><path class="cls-2" d="M240.65,274.22h23.47a3.61,3.61,0,0,1,3.7,3.69v9a3.62,3.62,0,0,1-3.7,3.7H240.65a3.61,3.61,0,0,1-3.69-3.7v-9C236.7,276.06,238.54,274.22,240.65,274.22Z"/><path class="cls-2" d="M127.79,325.11h57.49A3.6,3.6,0,0,1,189,328.8v9a3.6,3.6,0,0,1-3.69,3.69H127.79a3.6,3.6,0,0,1-3.69-3.69v-9A3.77,3.77,0,0,1,127.79,325.11Z"/><path class="cls-2" d="M48.68,299.53h9a3.61,3.61,0,0,1,3.7,3.69v9a3.61,3.61,0,0,1-3.7,3.69h-9A3.6,3.6,0,0,1,45,312.19v-9C44.72,301.38,46.57,299.53,48.68,299.53Z"/><path class="cls-2" d="M75.05,299.53h9a3.61,3.61,0,0,1,3.7,3.69v9a3.61,3.61,0,0,1-3.7,3.69h-9a3.6,3.6,0,0,1-3.69-3.69v-9C71.09,301.38,72.94,299.53,75.05,299.53Z"/><path class="cls-2" d="M101.42,299.53h9a3.61,3.61,0,0,1,3.7,3.69v9a3.61,3.61,0,0,1-3.7,3.69h-9a3.6,3.6,0,0,1-3.69-3.69v-9A3.77,3.77,0,0,1,101.42,299.53Z"/><path class="cls-2" d="M127.79,299.53h9a3.61,3.61,0,0,1,3.7,3.69v9a3.61,3.61,0,0,1-3.7,3.69h-9a3.6,3.6,0,0,1-3.69-3.69v-9A3.77,3.77,0,0,1,127.79,299.53Z"/><path class="cls-2" d="M154.16,299.53h9a3.61,3.61,0,0,1,3.69,3.69v9a3.61,3.61,0,0,1-3.69,3.69h-9a3.6,3.6,0,0,1-3.69-3.69v-9A3.77,3.77,0,0,1,154.16,299.53Z"/><path class="cls-2" d="M180.53,299.53h9a3.6,3.6,0,0,1,3.69,3.69v9a3.6,3.6,0,0,1-3.69,3.69h-9a3.6,3.6,0,0,1-3.69-3.69v-9A3.77,3.77,0,0,1,180.53,299.53Z"/><path class="cls-2" d="M206.9,299.53h9a3.6,3.6,0,0,1,3.69,3.69v9a3.6,3.6,0,0,1-3.69,3.69h-9a3.6,3.6,0,0,1-3.69-3.69v-9A3.77,3.77,0,0,1,206.9,299.53Z"/><path class="cls-2" d="M48.68,325.11h9a3.61,3.61,0,0,1,3.7,3.69v9a3.61,3.61,0,0,1-3.7,3.69h-9A3.6,3.6,0,0,1,45,337.77v-9C44.72,327,46.57,325.11,48.68,325.11Z"/><path class="cls-2" d="M75.05,325.11h9a3.61,3.61,0,0,1,3.7,3.69v9a3.61,3.61,0,0,1-3.7,3.69h-9a3.6,3.6,0,0,1-3.69-3.69v-9C71.09,327,72.94,325.11,75.05,325.11Z"/><path class="cls-2" d="M101.42,325.11h9a3.61,3.61,0,0,1,3.7,3.69v9a3.61,3.61,0,0,1-3.7,3.69h-9a3.6,3.6,0,0,1-3.69-3.69v-9A3.77,3.77,0,0,1,101.42,325.11Z"/><path class="cls-2" d="M206.9,325.11h9a3.6,3.6,0,0,1,3.69,3.69v9a3.6,3.6,0,0,1-3.69,3.69h-9a3.6,3.6,0,0,1-3.69-3.69v-9A3.77,3.77,0,0,1,206.9,325.11Z"/><path class="cls-2" d="M235.12,299.53h9a3.6,3.6,0,0,1,3.69,3.69v9a3.6,3.6,0,0,1-3.69,3.69h-9a3.61,3.61,0,0,1-3.7-3.69v-9C231.16,301.38,233,299.53,235.12,299.53Z"/><path class="cls-2" d="M235.12,325.11h9a3.6,3.6,0,0,1,3.69,3.69v9a3.6,3.6,0,0,1-3.69,3.69h-9a3.61,3.61,0,0,1-3.7-3.69v-9C231.16,327,233,325.11,235.12,325.11Z"/><path class="cls-2" d="M261,299.53h9a3.6,3.6,0,0,1,3.69,3.69v9a3.6,3.6,0,0,1-3.69,3.69h-9a3.6,3.6,0,0,1-3.69-3.69v-9C257,301.38,258.85,299.53,261,299.53Z"/><path class="cls-2" d="M261,325.11h9a3.6,3.6,0,0,1,3.69,3.69v9a3.6,3.6,0,0,1-3.69,3.69h-9a3.6,3.6,0,0,1-3.69-3.69v-9C257,327,258.85,325.11,261,325.11Z"/><path class="cls-2" d="M273,356.68H45.59a15.85,15.85,0,0,1-15.83-15.83v-66A15.85,15.85,0,0,1,45.59,259H273a15.85,15.85,0,0,1,15.83,15.83v66A15.85,15.85,0,0,1,273,356.68ZM45.59,263.33a11.51,11.51,0,0,0-11.5,11.5v66a11.51,11.51,0,0,0,11.5,11.5H273a11.51,11.51,0,0,0,11.49-11.5v-66A11.51,11.51,0,0,0,273,263.33Z"/><path class="cls-2" d="M327.24,341.55a22.77,22.77,0,0,1-22.75-22.75V290.47a16.36,16.36,0,0,1,16.34-16.34h12.81A16.37,16.37,0,0,1,350,290.48V318.8A22.78,22.78,0,0,1,327.24,341.55Zm-6.41-63.09a12,12,0,0,0-12,12V318.8a18.43,18.43,0,0,0,36.85,0V290.48a12,12,0,0,0-12-12Z"/><path class="cls-2" d="M327.24,307.12a2.17,2.17,0,0,1-2.16-2.17v-13.7a2.17,2.17,0,1,1,4.33,0V305A2.17,2.17,0,0,1,327.24,307.12Z"/></g></g></svg>