<svg xmlns="http://www.w3.org/2000/svg" viewBox="0 0 50.24 49"><defs><style>.cls-1{fill:#fff;}</style></defs><g id="Layer_2" data-name="Layer 2"><g id="Layer_1-2" data-name="Layer 1"><rect class="cls-1" x="12.79" y="35.58" width="6.37" height="2.37"/><path class="cls-1" d="M7.78,38H2.21A2.21,2.21,0,0,1,0,35.74V2.2A2.21,2.21,0,0,1,2.21,0H22.43a2.21,2.21,0,0,1,2.21,2.2V22.3H22.27V2.37H2.37V35.58H7.78Z"/><polygon class="cls-1" points="22.27 28.36 22.27 28.29 24.64 28.29 22.27 28.36"/><path class="cls-1" d="M50.24,49H31V46.63H47.87V30.15a6.67,6.67,0,0,0-6.66-6.67H17.32V21.11H41.21a9,9,0,0,1,9,9Z"/><path class="cls-1" d="M23.46,29.47H12.28a4.18,4.18,0,0,1-4.17-4.18,4.13,4.13,0,0,1,1.22-2.95,4.19,4.19,0,0,1,2.95-1.23H28.83v2.37H12.28A1.79,1.79,0,0,0,11,24a1.77,1.77,0,0,0-.53,1.27,1.81,1.81,0,0,0,1.81,1.81H23.46Z"/><path class="cls-1" d="M22.65,39.39a6.15,6.15,0,1,1,6.14-6.15A6.15,6.15,0,0,1,22.65,39.39Zm0-9.92a3.78,3.78,0,1,0,3.78,3.77A3.78,3.78,0,0,0,22.65,29.47Z"/><path class="cls-1" d="M40.48,39.39a6.15,6.15,0,1,1,6.14-6.15A6.15,6.15,0,0,1,40.48,39.39Zm0-9.92a3.78,3.78,0,1,0,3.78,3.77A3.78,3.78,0,0,0,40.48,29.47Z"/><path class="cls-1" d="M34.8,22.45a7.55,7.55,0,1,1,7.55-7.55A7.56,7.56,0,0,1,34.8,22.45Zm0-12.73A5.18,5.18,0,1,0,40,14.9,5.19,5.19,0,0,0,34.8,9.72Z"/><path class="cls-1" d="M50,49H30.91l0-1.21a9.47,9.47,0,0,1,9.53-9.32A9.58,9.58,0,0,1,50,47.79ZM33.44,46.63H47.5a7.21,7.21,0,0,0-7-5.79A7.11,7.11,0,0,0,33.44,46.63Z"/><path class="cls-1" d="M32.4,49H15.75V45.86c-8.6-1.37-8.92-5.77-9.13-8.72l0-.29C6.28,32.61,9,32.1,9.09,32.08a3.6,3.6,0,0,1,2.85.52,3.85,3.85,0,0,1,1.67,2.55c.61,3.51,2.22,3.37,2.4,3.34l.22,0h6.41a9.57,9.57,0,0,1,9.76,9.35ZM18.11,46.63H29.92a7.29,7.29,0,0,0-7.28-5.79H16.31a3.74,3.74,0,0,1-2.54-.65c-1.27-.85-2.1-2.41-2.49-4.63a1.47,1.47,0,0,0-.64-1,1.29,1.29,0,0,0-1-.2l-.13,0c-.19.07-.65.67-.53,2.27L9,37c.2,2.83.42,5.75,8.09,6.68l1,.13Z"/></g></g></svg>