<svg xmlns="http://www.w3.org/2000/svg" viewBox="0 0 60.87 49"><defs><style>.cls-1{fill:#fff;}</style></defs><g id="Layer_2" data-name="Layer 2"><g id="Layer_1-2" data-name="Layer 1"><polygon class="cls-1" points="53.13 17.13 50.55 17.13 50.55 2.57 10.3 2.57 10.3 17.13 7.73 17.13 7.73 0 53.13 0 53.13 17.13"/><polygon class="cls-1" points="9.74 38.25 0 38.25 0 15.84 13.5 15.84 13.5 29.31 10.93 29.31 10.93 18.41 2.57 18.41 2.57 35.68 9.74 35.68 9.74 38.25"/><polygon class="cls-1" points="60.87 38.25 51.12 38.25 51.12 35.68 58.29 35.68 58.29 18.41 49.93 18.41 49.93 29.31 47.35 29.31 47.35 15.84 60.87 15.84 60.87 38.25"/><path class="cls-1" d="M29.56,27.15H27a3.45,3.45,0,1,0-6.9,0H17.51a6,6,0,0,1,12,0Z"/><path class="cls-1" d="M31.4,28.22a5.32,5.32,0,0,1-.1-1.07,6,6,0,0,1,12.05,0,5.29,5.29,0,0,1-.1,1.06l-2.52-.48a3.68,3.68,0,0,0,.05-.58,3.46,3.46,0,0,0-6.91,0,3.58,3.58,0,0,0,.05.58Z"/><path class="cls-1" d="M27.67,19.17A1.47,1.47,0,0,1,27,19a1.42,1.42,0,0,1-.7-1.22V7A1.4,1.4,0,0,1,28.38,5.8l9.31,5.37a1.43,1.43,0,0,1,.7,1.22,1.4,1.4,0,0,1-.7,1.21L28.37,19A1.44,1.44,0,0,1,27.67,19.17ZM28.84,9v6.7l5.81-3.35ZM27.09,8h0Z"/><path class="cls-1" d="M47.75,49H13.11L8.87,38.46a8.94,8.94,0,0,1,.87-8.33,7.79,7.79,0,0,1,6.5-3.53H44.63a7.77,7.77,0,0,1,6.49,3.53A8.94,8.94,0,0,1,52,38.46Zm-32.9-2.57H46L49.6,37.5A6.37,6.37,0,0,0,49,31.57a5.22,5.22,0,0,0-4.36-2.4H16.24a5.24,5.24,0,0,0-4.37,2.4,6.37,6.37,0,0,0-.61,5.93Z"/></g></g></svg>