<svg xmlns="http://www.w3.org/2000/svg" viewBox="0 0 199.88 199.88"><defs><style>.cls-1{fill:#089de3;}.cls-2{fill:#fff;}.cls-3,.cls-4{fill:none;stroke:#fff;stroke-miterlimit:10;stroke-width:7.14px;}.cls-3{stroke-linecap:round;}</style></defs><g id="Layer_2" data-name="Layer 2"><g id="Layer_1-2" data-name="Layer 1"><rect class="cls-1" width="199.88" height="199.88" rx="19.01"/><path class="cls-2" d="M99.94,58.57A41.37,41.37,0,1,0,141.3,99.93,41.36,41.36,0,0,0,99.94,58.57Zm19.47,59.12q0,5.24-5.3,5.23l-17.74,0q-15.91,0-15.9-16.26V82.25c0-3.53,1.76-5.31,5.29-5.31s5.31,1.8,5.31,5.38v24.53c0,3.62,1.8,5.44,5.4,5.44h12.34v-30c0-3.58,1.8-5.38,5.41-5.38s5.19,1.8,5.19,5.38Z"/><path class="cls-3" d="M41.35,119.74V74A32.67,32.67,0,0,1,74,41.35H151"/><path class="cls-3" d="M158.52,77.37v48.48a32.66,32.66,0,0,1-32.67,32.67h-78"/><circle class="cls-4" cx="158.52" cy="41.35" r="6.45"/><circle class="cls-4" cx="41.35" cy="158.52" r="6.45"/></g></g></svg>