<svg xmlns="http://www.w3.org/2000/svg" viewBox="0 0 145 145"><defs><style>.cls-1{fill:#089de3;}.cls-2{fill:#fff;}.cls-3{fill:#4c4c4c;}</style></defs><g id="Layer_2" data-name="Layer 2"><g id="Layer_1-2" data-name="Layer 1"><circle class="cls-1" cx="76.16" cy="76.16" r="68.84"/><path class="cls-2" d="M39.35,61.69A1.69,1.69,0,0,1,37.66,60V39.35a1.69,1.69,0,0,1,1.69-1.69H60A1.69,1.69,0,0,1,60,41H41V60A1.69,1.69,0,0,1,39.35,61.69Z"/><path class="cls-2" d="M101.71,103.4H81.06a1.69,1.69,0,0,1,0-3.38h19v-19a1.69,1.69,0,1,1,3.37,0v20.65A1.68,1.68,0,0,1,101.71,103.4Z"/><path class="cls-2" d="M60,103.4H39.35a1.69,1.69,0,0,1-1.69-1.69V81.06a1.69,1.69,0,0,1,3.38,0v19H60a1.69,1.69,0,0,1,0,3.38Z"/><path class="cls-2" d="M101.71,61.69A1.69,1.69,0,0,1,100,60V41h-19a1.69,1.69,0,0,1,0-3.38h20.65a1.68,1.68,0,0,1,1.69,1.69V60A1.69,1.69,0,0,1,101.71,61.69Z"/><path class="cls-2" d="M60,61.69a1.71,1.71,0,0,1-1.2-.5L38.16,40.54a1.69,1.69,0,1,1,2.38-2.39L61.19,58.8A1.7,1.7,0,0,1,60,61.69Z"/><path class="cls-2" d="M81.06,61.69a1.7,1.7,0,0,1-1.19-2.89l20.65-20.65a1.69,1.69,0,1,1,2.39,2.39L82.26,61.19A1.69,1.69,0,0,1,81.06,61.69Z"/><path class="cls-2" d="M101.71,103.4a1.67,1.67,0,0,1-1.19-.49L79.87,82.26a1.69,1.69,0,1,1,2.39-2.39l20.65,20.65a1.69,1.69,0,0,1-1.2,2.88Z"/><path class="cls-2" d="M39.35,103.4a1.67,1.67,0,0,1-1.19-.49,1.69,1.69,0,0,1,0-2.39L58.8,79.87a1.69,1.69,0,1,1,2.39,2.39L40.54,102.91A1.67,1.67,0,0,1,39.35,103.4Z"/><path class="cls-3" d="M70.53,141.06a70.53,70.53,0,1,1,70.53-70.53A70.61,70.61,0,0,1,70.53,141.06Zm0-137.68a67.15,67.15,0,1,0,67.15,67.15A67.22,67.22,0,0,0,70.53,3.38Z"/></g></g></svg>