<svg xmlns="http://www.w3.org/2000/svg" viewBox="0 0 53.7 49"><defs><style>.cls-1{fill:#fff;}</style></defs><g id="Layer_2" data-name="Layer 2"><g id="Layer_1-2" data-name="Layer 1"><path class="cls-1" d="M17,37.18H14.54a2,2,0,0,1-2-2V32.75a.26.26,0,0,0-.26-.26H9.86a2,2,0,0,1-2-2V28.06a2,2,0,0,1,2-2h2.46a.26.26,0,0,0,.26-.26V23.38a2,2,0,0,1,2-2H17a2,2,0,0,1,2,2v2.46a.26.26,0,0,0,.25.26H21.7a2,2,0,0,1,2,2v2.47a2,2,0,0,1-2,2H19.23a.26.26,0,0,0-.25.26v2.46A2,2,0,0,1,17,37.18Zm-2-2.42h1.55v-2a2.69,2.69,0,0,1,2.68-2.68h2V28.52h-2a2.69,2.69,0,0,1-2.68-2.68v-2H15v2a2.68,2.68,0,0,1-2.68,2.68h-2v1.55h2A2.68,2.68,0,0,1,15,32.75Z"/><path class="cls-1" d="M40.72,28.82a4.11,4.11,0,1,1,4.11-4.11A4.12,4.12,0,0,1,40.72,28.82Zm0-5.8a1.69,1.69,0,1,0,1.69,1.69A1.69,1.69,0,0,0,40.72,23Z"/><path class="cls-1" d="M35.14,36.68a4.11,4.11,0,1,1,4.11-4.11A4.12,4.12,0,0,1,35.14,36.68Zm0-5.8a1.69,1.69,0,1,0,1.69,1.69A1.69,1.69,0,0,0,35.14,30.88Z"/><path class="cls-1" d="M11.72,49a11.53,11.53,0,0,1-1.89-.17,10.93,10.93,0,0,1-7.27-5.08c-5.64-9-.55-20.41,1.91-24.91A17.58,17.58,0,0,1,8.59,13.7c2.92-2.43,6.5-2.4,10.08.07a34.11,34.11,0,0,1,4.24,3.59,10.46,10.46,0,0,0,2.5,2,3.69,3.69,0,0,0,2.88,0,10.94,10.94,0,0,0,2.57-2.09A36.59,36.59,0,0,1,35,13.78c3.87-2.73,6.88-2.75,10.1-.08a17.71,17.71,0,0,1,4.12,5.14c2.46,4.5,7.55,15.93,1.9,24.91h0a10.91,10.91,0,0,1-7.25,5.08c-3.83.65-6.79-.6-8.59-3.6l-.36-.62c-1.3-2.26-2.65-4.6-8-4.47-5.48-.15-6.81,2.21-8.11,4.47l-.35.61A7.41,7.41,0,0,1,11.72,49Zm1.63-34.7a4.93,4.93,0,0,0-3.21,1.26A15.14,15.14,0,0,0,6.59,20c-2.25,4.13-6.94,14.57-2,22.47a8.52,8.52,0,0,0,5.63,4c2.82.48,4.82-.33,6.1-2.47l.33-.57C18,41.08,20,37.54,26.88,37.72c6.78-.18,8.81,3.36,10.15,5.69.11.2.22.39.34.58,1.28,2.13,3.27,2.94,6.1,2.46a8.48,8.48,0,0,0,5.61-4h0c5-7.9.28-18.34-2-22.46a15.28,15.28,0,0,0-3.55-4.44c-2-1.66-3.81-2.16-7.15.2a32.89,32.89,0,0,0-3.87,3.3,12.08,12.08,0,0,1-3.29,2.56,6.07,6.07,0,0,1-4.8,0,11.69,11.69,0,0,1-3.22-2.51,29.45,29.45,0,0,0-3.94-3.34A7,7,0,0,0,13.35,14.3Z"/><path class="cls-1" d="M26.85,22.12a1.21,1.21,0,0,1-1.21-1.21V17.25A9.72,9.72,0,0,1,33.5,8.7a7.62,7.62,0,0,0,5.83-7.49,1.21,1.21,0,1,1,2.42,0A10,10,0,0,1,34,11.06a7.23,7.23,0,0,0-6,6.27v3.58A1.21,1.21,0,0,1,26.85,22.12Z"/></g></g></svg>