<svg xmlns="http://www.w3.org/2000/svg" xmlns:xlink="http://www.w3.org/1999/xlink" viewBox="0 0 160 50"><defs><style>.cls-1{fill:#12100b;}.cls-2,.cls-3{fill:#fff;}.cls-2{stroke:#fff;stroke-miterlimit:10;stroke-width:0.24px;}.cls-4{fill:#5bc8f3;}.cls-5{fill:url(#linear-gradient);}.Graphic-Style-2{fill:url(#linear-gradient-2);}.cls-6{fill:url(#linear-gradient-3);}</style><linearGradient id="linear-gradient" x1="36.85" y1="25" x2="8.19" y2="25" gradientUnits="userSpaceOnUse"><stop offset="0" stop-color="#ffdf00"/><stop offset="0.41" stop-color="#fbbc0e"/><stop offset="0.78" stop-color="#f9a418"/><stop offset="1" stop-color="#f89b1c"/></linearGradient><linearGradient id="linear-gradient-2" x1="29.41" y1="27.72" x2="2.46" y2="54.67" gradientUnits="userSpaceOnUse"><stop offset="0" stop-color="#ee4447"/><stop offset="1" stop-color="#c5166c"/></linearGradient><linearGradient id="linear-gradient-3" x1="2.34" y1="-4.79" x2="24.34" y2="17.22" gradientUnits="userSpaceOnUse"><stop offset="0" stop-color="#269e6f"/><stop offset="0.05" stop-color="#2ba06f"/><stop offset="0.47" stop-color="#53b26b"/><stop offset="0.8" stop-color="#6bbd69"/><stop offset="1" stop-color="#74c168"/></linearGradient></defs><g id="Layer_2" data-name="Layer 2"><g id="Layer_1-2" data-name="Layer 1"><rect class="cls-1" width="160" height="50" rx="5"/><path class="cls-2" d="M56.2,13.44a3.2,3.2,0,0,1-.88,2.37,3.46,3.46,0,0,1-2.62,1,3.56,3.56,0,0,1-2.61-1.06A3.6,3.6,0,0,1,49,13.15,3.67,3.67,0,0,1,52.7,9.43a3.63,3.63,0,0,1,1.46.3,3,3,0,0,1,1.12.8l-.63.62a2.41,2.41,0,0,0-1.95-.84,2.71,2.71,0,0,0-1.94.79,2.73,2.73,0,0,0-.82,2.05,2.75,2.75,0,0,0,.82,2,2.83,2.83,0,0,0,3.93,0,2.27,2.27,0,0,0,.6-1.44H52.7V12.9h3.45A3.39,3.39,0,0,1,56.2,13.44Z"/><path class="cls-2" d="M61.66,10.47H58.42v2.25h2.92v.86H58.42v2.25h3.24v.87H57.51V9.59h4.15Z"/><path class="cls-2" d="M65.52,16.7H64.6V10.47h-2V9.59H67.5v.88h-2Z"/><path class="cls-2" d="M71,16.7V9.59H72V16.7Z"/><path class="cls-2" d="M76,16.7h-.91V10.47h-2V9.59H78v.88H76Z"/><path class="cls-2" d="M87.24,15.78a3.49,3.49,0,0,1-2.61,1.08A3.46,3.46,0,0,1,82,15.78a3.6,3.6,0,0,1-1-2.63,3.64,3.64,0,0,1,1-2.64,3.67,3.67,0,0,1,5.21,0,3.64,3.64,0,0,1,1.05,2.63A3.6,3.6,0,0,1,87.24,15.78Zm-4.54-.59a2.73,2.73,0,0,0,3.86,0,2.77,2.77,0,0,0,.8-2,2.77,2.77,0,0,0-.8-2,2.73,2.73,0,0,0-3.86,0,2.8,2.8,0,0,0-.79,2A2.8,2.8,0,0,0,82.7,15.19Z"/><path class="cls-2" d="M89.57,16.7V9.59h1.11l3.46,5.53h0l0-1.37V9.59h.91V16.7h-1l-3.62-5.8h0l0,1.37V16.7Z"/><path class="cls-3" d="M80.75,27.08a5,5,0,1,0,5.06,5A5,5,0,0,0,80.75,27.08Zm0,8.09a3.06,3.06,0,1,1,2.85-3.05A2.92,2.92,0,0,1,80.75,35.17Zm-11-8.09a5,5,0,1,0,5.06,5A5,5,0,0,0,69.72,27.08Zm0,8.09a3.06,3.06,0,1,1,2.84-3.05A2.92,2.92,0,0,1,69.72,35.17ZM56.59,28.62v2.14H61.7a4.45,4.45,0,0,1-1.16,2.69A5.23,5.23,0,0,1,56.59,35a5.69,5.69,0,0,1,0-11.38,5.44,5.44,0,0,1,3.85,1.53L62,23.66a7.47,7.47,0,0,0-5.36-2.16,7.83,7.83,0,1,0,0,15.66A7.19,7.19,0,0,0,62.05,35a7.07,7.07,0,0,0,1.85-5,6.67,6.67,0,0,0-.12-1.34Zm53.69,1.66a4.69,4.69,0,0,0-4.31-3.2,4.79,4.79,0,0,0-4.76,5,4.94,4.94,0,0,0,5,5,5,5,0,0,0,4.2-2.24l-1.72-1.14a2.88,2.88,0,0,1-2.48,1.39,2.56,2.56,0,0,1-2.45-1.53l6.74-2.78ZM103.41,32A2.77,2.77,0,0,1,106,29a2,2,0,0,1,1.88,1.07Zm-5.48,4.89h2.21V22H97.93ZM94.3,28.2h-.07a3.52,3.52,0,0,0-2.66-1.12,5,5,0,0,0,0,10.08A3.47,3.47,0,0,0,94.23,36h.07v.73c0,1.93-1,3-2.69,3a2.79,2.79,0,0,1-2.54-1.8l-1.93.8a4.81,4.81,0,0,0,4.47,3c2.6,0,4.79-1.52,4.79-5.25v-9H94.3Zm-2.54,7a3.07,3.07,0,0,1,0-6.11,2.84,2.84,0,0,1,2.69,3.08A2.81,2.81,0,0,1,91.76,35.17ZM120.66,22h-5.3V36.85h2.21V31.24h3.09a4.61,4.61,0,1,0,0-9.2Zm.06,7.14h-3.15V24.1h3.15a2.54,2.54,0,1,1,0,5.08Zm13.66-2.13a4.13,4.13,0,0,0-3.94,2.27l2,.82a2.1,2.1,0,0,1,2-1.09A2.14,2.14,0,0,1,136.75,31v.15a4.89,4.89,0,0,0-2.31-.57c-2.12,0-4.27,1.16-4.27,3.33a3.42,3.42,0,0,0,3.68,3.26,3.09,3.09,0,0,0,2.82-1.45h.08v1.15h2.13V31.15C138.88,28.52,136.92,27.05,134.38,27.05Zm-.26,8.12c-.73,0-1.74-.36-1.74-1.26,0-1.14,1.26-1.58,2.35-1.58a4,4,0,0,1,2,.49A2.68,2.68,0,0,1,134.12,35.17Zm12.54-7.8-2.54,6.43h-.07l-2.63-6.43H139l3.95,9-2.25,5H143l6.08-14Zm-19.92,9.48H129V22h-2.21Z"/><path class="cls-4" d="M12.37,10.24a2.36,2.36,0,0,0-.55,1.67V38.09a2.36,2.36,0,0,0,.55,1.67l.08.08L27.13,25.17v-.34L12.45,10.16Z"/><path class="cls-5" d="M32,30.07l-4.89-4.9v-.34L32,19.94l.11.06,5.79,3.29c1.66.94,1.66,2.48,0,3.42L32.13,30Z"/><path class="Graphic-Style-2" d="M32.13,30l-5-5L12.37,39.76a1.92,1.92,0,0,0,2.46.07L32.13,30"/><path class="cls-6" d="M32.13,20l-17.3-9.83a1.92,1.92,0,0,0-2.46.07L27.13,25Z"/></g></g></svg>