<svg xmlns="http://www.w3.org/2000/svg" xmlns:xlink="http://www.w3.org/1999/xlink" viewBox="0 0 32.87 32.87"><defs><style>.cls-1{fill:url(#linear-gradient);}.cls-2{fill:#fff;}</style><linearGradient id="linear-gradient" x1="4.81" y1="28.06" x2="28.06" y2="4.81" gradientUnits="userSpaceOnUse"><stop offset="0" stop-color="#f3ca5f"/><stop offset="0.22" stop-color="#f88827"/><stop offset="0.43" stop-color="#dc2d5c"/><stop offset="0.71" stop-color="#a44882"/><stop offset="1" stop-color="#46469b"/></linearGradient></defs><g id="Layer_2" data-name="Layer 2"><g id="Layer_1-2" data-name="Layer 1"><path class="cls-1" d="M32.87,16.44A16.44,16.44,0,1,1,16.44,0,16.44,16.44,0,0,1,32.87,16.44Z"/><path class="cls-2" d="M21.66,26H11.21a4.33,4.33,0,0,1-4.32-4.33V11.25a4.33,4.33,0,0,1,4.32-4.33H21.66A4.33,4.33,0,0,1,26,11.25V21.69A4.33,4.33,0,0,1,21.66,26ZM11.21,8.82a2.43,2.43,0,0,0-2.42,2.43V21.69a2.43,2.43,0,0,0,2.42,2.43H21.66a2.42,2.42,0,0,0,2.42-2.43V11.25a2.42,2.42,0,0,0-2.42-2.43Zm5.23,12.64a4.94,4.94,0,1,1,4.93-4.93A4.94,4.94,0,0,1,16.44,21.46Zm0-8a3,3,0,1,0,3,3A3,3,0,0,0,16.44,13.49Zm5.12-3.11a1.25,1.25,0,1,0,1.25,1.25A1.25,1.25,0,0,0,21.56,10.38Z"/></g></g></svg>