<svg xmlns="http://www.w3.org/2000/svg" viewBox="0 0 37.09 40"><defs><style>.cls-1{fill:#d0e9fb;}.cls-1,.cls-2,.cls-4{fill-rule:evenodd;}.cls-2,.cls-3{fill:#00acec;}</style></defs><g id="Layer_2" data-name="Layer 2"><g id="Layer_1-2" data-name="Layer 1"><path class="cls-1" d="M20,29.7c-4.87.19-4.4-1.67,0-1.86,0,.15.18-3,.47-4.68l-6-.46c.6-6.9,2.12-12.57,5.28-17.79H2A2,2,0,0,0,0,6.86v26.2A2,2,0,0,0,2,35H20.77A43.43,43.43,0,0,1,20,29.7Z"/><path class="cls-2" d="M22,27.71c3.6-.35,3.73,1.49,0,1.87A26.25,26.25,0,0,0,22.86,35H35.13a2,2,0,0,0,2-1.95V6.87a2,2,0,0,0-2-2H21.94a37.52,37.52,0,0,0-5.75,16.25l5.56,1.32c-.57,2.21.32,3.08.26,5.23Z"/><rect class="cls-3" x="8.98" y="9.47" width="1.93" height="4.46" rx="0.96"/><rect x="25.04" y="9.47" width="1.93" height="4.46" rx="0.96"/><path class="cls-2" d="M20,27.84V29.7A30.83,30.83,0,0,1,6.36,27.18.85.85,0,0,1,6,25.94H6a.86.86,0,0,1,1.07-.33,30,30,0,0,0,13,2.23Z"/><path class="cls-4" d="M22,27.71a22.14,22.14,0,0,0,8-2.15.88.88,0,0,1,1.13.24h0a.89.89,0,0,1-.3,1.35A25.88,25.88,0,0,1,22,29.58a23.65,23.65,0,0,0,2.22,9,1,1,0,0,1-.42,1.26h0a1,1,0,0,1-1.31-.38c-2.57-4.64-3-10.65-2-16.34h-5.7a.83.83,0,0,1-.82-.91,41.6,41.6,0,0,1,9-21.9A.93.93,0,0,1,24.28.23h0a.94.94,0,0,1,.11,1.3,37.06,37.06,0,0,0-8.2,19.63H22a.81.81,0,0,1,.79,1A29.05,29.05,0,0,0,22,27.71Z"/></g></g></svg>