<svg xmlns="http://www.w3.org/2000/svg" viewBox="0 0 160 50"><defs><style>.cls-1,.cls-2{fill:#fff;}.cls-1{fill-rule:evenodd;}</style></defs><g id="Layer_2" data-name="Layer 2"><g id="Layer_1-2" data-name="Layer 1"><rect width="160" height="50" rx="5"/><path class="cls-1" d="M24.9,32.42h0v0h-.31a23.5,23.5,0,0,1-10.07-1.92.65.65,0,0,1,.27-1.25.58.58,0,0,1,.26.05A22.74,22.74,0,0,0,24.9,31a24.72,24.72,0,0,1,.32-3.31,2,2,0,0,1,0-.24H20.93a.63.63,0,0,1-.62-.7,31.94,31.94,0,0,1,4.38-13.17H11.17a1.49,1.49,0,0,0-1.48,1.49V35a1.49,1.49,0,0,0,1.48,1.49H25.46A19,19,0,0,1,24.9,32.42ZM16.51,17.76a.74.74,0,1,1,1.47,0v1.92a.73.73,0,0,1-.73.73.72.72,0,0,1-.52-.21.77.77,0,0,1-.22-.52Z"/><path class="cls-1" d="M36.38,13.56h-10A28.49,28.49,0,0,0,22,25.5c0,.14,0,.27-.05.41h4.38a.62.62,0,0,1,.6.76,22.13,22.13,0,0,0-.56,4.21,16.65,16.65,0,0,0,6.11-1.63.69.69,0,0,1,.87.18.75.75,0,0,1,.14.42.67.67,0,0,1-.38.61,19.47,19.47,0,0,1-6.48,1.81l-.26,0,0,.53h0c0,.35.07.7.11,1s.09.59.14.88l0,.16q.15.77.36,1.53h9.3A1.49,1.49,0,0,0,37.87,35V15.05A1.49,1.49,0,0,0,36.38,13.56Zm-6.2,6.12a.73.73,0,0,1-.73.73.72.72,0,0,1-.73-.73V17.76a.73.73,0,1,1,1.46,0Z"/><path class="cls-2" d="M56.66,16.49a4,4,0,0,1-1.28,3.22,5.13,5.13,0,0,1-3.37,1,16.15,16.15,0,0,1-1.86-.1V12.82a13.52,13.52,0,0,1,2.19-.17,4.66,4.66,0,0,1,3.13.91A3.63,3.63,0,0,1,56.66,16.49Zm-1.34,0a2.91,2.91,0,0,0-.73-2.13,2.92,2.92,0,0,0-2.15-.74,5.86,5.86,0,0,0-1,.08v5.93a7.19,7.19,0,0,0,.86,0,3,3,0,0,0,2.25-.82A3.22,3.22,0,0,0,55.32,16.52Z"/><path class="cls-2" d="M63.76,17.73A3.12,3.12,0,0,1,63,19.89a2.66,2.66,0,0,1-2.09.88,2.56,2.56,0,0,1-2-.84,3.08,3.08,0,0,1-.74-2.1,3.09,3.09,0,0,1,.77-2.18A2.67,2.67,0,0,1,61,14.8a2.6,2.6,0,0,1,2,.84A3,3,0,0,1,63.76,17.73Zm-1.31,0a2.53,2.53,0,0,0-.35-1.35A1.24,1.24,0,0,0,61,15.73a1.27,1.27,0,0,0-1.16.69,2.91,2.91,0,0,0,0,2.73,1.29,1.29,0,0,0,2.29,0A2.52,2.52,0,0,0,62.45,17.77Z"/><path class="cls-2" d="M73.29,14.92,71.5,20.64H70.34l-.75-2.49c-.18-.61-.34-1.23-.46-1.84h0a12.69,12.69,0,0,1-.46,1.84l-.78,2.49H66.69L65,14.92h1.3L67,17.64q.24,1,.39,1.83h0c.1-.48.25-1.08.47-1.82l.81-2.73h1l.77,2.67a19,19,0,0,1,.46,1.88h0a15,15,0,0,1,.39-1.88L72,14.92Z"/><path class="cls-2" d="M79.87,20.64H78.6V17.36c0-1-.38-1.51-1.15-1.51a1.15,1.15,0,0,0-.92.42,1.47,1.47,0,0,0-.35,1v3.39H74.91V16.56c0-.51,0-1,0-1.64H76l.06.89h0a2,2,0,0,1,.66-.69,2.19,2.19,0,0,1,1.15-.32,1.83,1.83,0,0,1,1.33.52,2.51,2.51,0,0,1,.66,1.89Z"/><path class="cls-2" d="M83.37,20.64H82.11V12.3h1.26Z"/><path class="cls-2" d="M90.85,17.73a3.12,3.12,0,0,1-.75,2.16,2.66,2.66,0,0,1-2.09.88,2.56,2.56,0,0,1-2-.84,3.08,3.08,0,0,1-.74-2.1A3.09,3.09,0,0,1,86,15.65a2.67,2.67,0,0,1,2.07-.85,2.6,2.6,0,0,1,2,.84A3,3,0,0,1,90.85,17.73Zm-1.32,0a2.53,2.53,0,0,0-.34-1.35,1.24,1.24,0,0,0-1.14-.69,1.27,1.27,0,0,0-1.16.69,2.91,2.91,0,0,0,0,2.73,1.29,1.29,0,0,0,2.29,0A2.52,2.52,0,0,0,89.53,17.77Z"/><path class="cls-2" d="M97,20.64H95.86L95.77,20h0a2,2,0,0,1-1.67.79,1.73,1.73,0,0,1-1.3-.52,1.63,1.63,0,0,1-.45-1.17,1.79,1.79,0,0,1,.87-1.6,4.74,4.74,0,0,1,2.47-.54v-.1c0-.75-.4-1.13-1.19-1.13a2.68,2.68,0,0,0-1.49.42l-.25-.83a3.63,3.63,0,0,1,2-.5c1.49,0,2.24.79,2.24,2.37v2.1A9.77,9.77,0,0,0,97,20.64Zm-1.32-2v-.88c-1.4,0-2.1.36-2.1,1.15a.87.87,0,0,0,.24.67.91.91,0,0,0,.62.23,1.27,1.27,0,0,0,.78-.27,1,1,0,0,0,.44-.67A.82.82,0,0,0,95.68,18.67Z"/><path class="cls-2" d="M104.22,20.64h-1.13l-.06-.92h0a1.91,1.91,0,0,1-1.84,1.05A2.14,2.14,0,0,1,99.45,20a3.12,3.12,0,0,1-.68-2.1,3.3,3.3,0,0,1,.74-2.25,2.26,2.26,0,0,1,1.76-.8,1.71,1.71,0,0,1,1.61.78h0V12.3h1.27v6.8C104.17,19.65,104.19,20.17,104.22,20.64Zm-1.32-2.41v-1a2.25,2.25,0,0,0,0-.4,1.5,1.5,0,0,0-.46-.77,1.29,1.29,0,0,0-.85-.31,1.31,1.31,0,0,0-1.12.57A2.39,2.39,0,0,0,100,17.8a2.26,2.26,0,0,0,.39,1.38,1.33,1.33,0,0,0,1.11.56,1.21,1.21,0,0,0,1-.47A1.59,1.59,0,0,0,102.9,18.23Z"/><path class="cls-2" d="M115.08,17.73a3.12,3.12,0,0,1-.75,2.16,2.65,2.65,0,0,1-2.09.88,2.56,2.56,0,0,1-2-.84,3.08,3.08,0,0,1-.74-2.1,3.09,3.09,0,0,1,.77-2.18,2.67,2.67,0,0,1,2.07-.85,2.58,2.58,0,0,1,2,.84A3,3,0,0,1,115.08,17.73Zm-1.31,0a2.63,2.63,0,0,0-.34-1.35,1.26,1.26,0,0,0-1.14-.69,1.28,1.28,0,0,0-1.17.69,2.91,2.91,0,0,0,0,2.73,1.29,1.29,0,0,0,1.15.69,1.27,1.27,0,0,0,1.14-.7A2.52,2.52,0,0,0,113.77,17.77Z"/><path class="cls-2" d="M121.91,20.64h-1.27V17.36c0-1-.38-1.51-1.15-1.51a1.13,1.13,0,0,0-.91.42,1.43,1.43,0,0,0-.36,1v3.39H117V16.56c0-.51,0-1,0-1.64H118l.06.89h0a2,2,0,0,1,.65-.69,2.2,2.2,0,0,1,1.16-.32,1.87,1.87,0,0,1,1.33.52,2.51,2.51,0,0,1,.65,1.89Z"/><path class="cls-2" d="M130.46,15.87h-1.4v2.78c0,.7.25,1.06.74,1.06a2.26,2.26,0,0,0,.57-.06l0,1a2.71,2.71,0,0,1-1,.14,1.5,1.5,0,0,1-1.18-.46,2.23,2.23,0,0,1-.42-1.54V15.87H127v-.95h.84V13.87l1.24-.37v1.42h1.4Z"/><path class="cls-2" d="M137.19,20.64h-1.27V17.39c0-1-.39-1.54-1.15-1.54a1.22,1.22,0,0,0-1.22.89,2,2,0,0,0-.05.46v3.44h-1.27V12.3h1.27v3.44h0a1.93,1.93,0,0,1,1.72-.94,1.78,1.78,0,0,1,1.3.52,2.61,2.61,0,0,1,.65,1.92Z"/><path class="cls-2" d="M144.12,17.51a3,3,0,0,1,0,.57h-3.81a1.66,1.66,0,0,0,.55,1.3,1.93,1.93,0,0,0,1.25.4,4.26,4.26,0,0,0,1.54-.27l.2.88a4.88,4.88,0,0,1-1.92.35A2.78,2.78,0,0,1,139.8,20a2.9,2.9,0,0,1-.75-2.1,3.27,3.27,0,0,1,.7-2.15,2.44,2.44,0,0,1,2-.92,2.13,2.13,0,0,1,1.87.92A3.08,3.08,0,0,1,144.12,17.51Zm-1.21-.33a1.74,1.74,0,0,0-.24-1,1.12,1.12,0,0,0-1-.53,1.23,1.23,0,0,0-1,.52,2,2,0,0,0-.37,1Z"/><path class="cls-2" d="M57.74,32.55c-.06-1.35-.13-3-.12-4.42h0c-.34,1.29-.78,2.71-1.24,4l-1.54,4.54H53.31l-1.39-4.48c-.41-1.35-.78-2.78-1.06-4.1h0c0,1.38-.11,3.06-.19,4.49l-.24,4.22H48.61l.7-10.51h2.52l1.37,4.22c.38,1.24.72,2.49,1,3.66h0c.28-1.15.64-2.43,1-3.67l1.46-4.21h2.49l.6,10.51H57.94Z"/><path class="cls-2" d="M66,36.84,65.89,36h0a2.76,2.76,0,0,1-2.23,1,2.25,2.25,0,0,1-2.39-2.26c0-1.91,1.7-2.88,4.5-2.87v-.13c0-.49-.2-1.32-1.54-1.32a4,4,0,0,0-2,.57l-.38-1.25a5.45,5.45,0,0,1,2.75-.67c2.43,0,3.12,1.53,3.12,3.2V35a11.82,11.82,0,0,0,.12,1.83Zm-.25-3.72c-1.36,0-2.65.27-2.65,1.42a1,1,0,0,0,1.09,1.1,1.56,1.56,0,0,0,1.5-1,1.26,1.26,0,0,0,.06-.42Z"/><path class="cls-2" d="M75.24,36.61A5.41,5.41,0,0,1,73.1,37a3.66,3.66,0,0,1-3.92-3.88,3.92,3.92,0,0,1,4.22-4,5,5,0,0,1,1.86.35l-.34,1.44a3.27,3.27,0,0,0-1.45-.29A2.27,2.27,0,0,0,71.14,33a2.26,2.26,0,0,0,2.33,2.44,3.72,3.72,0,0,0,1.51-.3Z"/><path class="cls-2" d="M82.06,33.87l-.89,3h-2l3.37-10.51H85l3.41,10.51H86.35l-.95-3Zm3-1.45-.82-2.59c-.21-.65-.38-1.37-.54-2h0c-.16.62-.32,1.35-.5,2l-.81,2.6Z"/><path class="cls-2" d="M89.72,31.76c0-1,0-1.8-.06-2.51h1.69l.09,1.17h0a2.94,2.94,0,0,1,2.6-1.34c1.74,0,3.19,1.49,3.19,3.86,0,2.75-1.73,4.07-3.45,4.07a2.48,2.48,0,0,1-2.14-1h0v3.92H89.72Zm1.92,1.9a2.78,2.78,0,0,0,0,.52,1.75,1.75,0,0,0,1.69,1.35c1.22,0,1.93-1,1.93-2.5s-.65-2.44-1.89-2.44A1.81,1.81,0,0,0,91.71,32a1.92,1.92,0,0,0-.07.48Z"/><path class="cls-2" d="M98.84,31.76c0-1,0-1.8-.06-2.51h1.68l.1,1.17h0a2.94,2.94,0,0,1,2.6-1.34c1.74,0,3.18,1.49,3.18,3.86,0,2.75-1.72,4.07-3.45,4.07a2.48,2.48,0,0,1-2.13-1h0v3.92H98.84Zm1.92,1.9a2.14,2.14,0,0,0,0,.52,1.75,1.75,0,0,0,1.69,1.35c1.21,0,1.93-1,1.93-2.5s-.66-2.44-1.89-2.44A1.79,1.79,0,0,0,100.83,32a1.92,1.92,0,0,0-.07.48Z"/><path class="cls-2" d="M111.21,34.74a5.28,5.28,0,0,0,2.54.67c1.23,0,1.91-.57,1.91-1.43s-.53-1.26-1.86-1.74c-1.74-.62-2.84-1.55-2.84-3.05,0-1.73,1.43-3,3.71-3a5.56,5.56,0,0,1,2.52.52l-.46,1.55a4.53,4.53,0,0,0-2.1-.5c-1.21,0-1.73.65-1.73,1.26,0,.81.61,1.19,2,1.72,1.82.7,2.7,1.62,2.7,3.13,0,1.69-1.27,3.15-4,3.15a6.12,6.12,0,0,1-2.84-.67Z"/><path class="cls-2" d="M121.4,27.08v2.17h1.83v1.43H121.4V34c0,.93.25,1.4,1,1.4a2.69,2.69,0,0,0,.74-.09l0,1.46a4.24,4.24,0,0,1-1.4.2,2.26,2.26,0,0,1-1.65-.62,3,3,0,0,1-.6-2.13V30.68h-1.08V29.25h1.08V27.53Z"/><path class="cls-2" d="M131.79,33a3.75,3.75,0,0,1-3.89,4,3.67,3.67,0,0,1-3.8-3.91,3.75,3.75,0,0,1,3.93-4A3.64,3.64,0,0,1,131.79,33Zm-5.72.08c0,1.46.73,2.56,1.89,2.56s1.86-1.06,1.86-2.58c0-1.2-.53-2.56-1.85-2.56S126.07,31.79,126.07,33.05Z"/><path class="cls-2" d="M133.37,31.69c0-1,0-1.76-.06-2.44H135l.07,1.44h.06a2.25,2.25,0,0,1,2.07-1.61,2,2,0,0,1,.45,0v1.81a2.23,2.23,0,0,0-.56-.06,1.69,1.69,0,0,0-1.72,1.45,3.48,3.48,0,0,0-.05.58v3.94h-1.92Z"/><path class="cls-2" d="M140.13,33.57a2.07,2.07,0,0,0,2.35,2,5.83,5.83,0,0,0,2.09-.35l.28,1.32a7,7,0,0,1-2.65.48,3.59,3.59,0,0,1-3.9-3.85c0-2.09,1.27-4.07,3.71-4.07s3.27,2,3.27,3.69a4.4,4.4,0,0,1-.07.8Zm3.34-1.33a1.63,1.63,0,0,0-1.58-1.85,1.87,1.87,0,0,0-1.76,1.85Z"/></g></g></svg>