<svg xmlns="http://www.w3.org/2000/svg" viewBox="0 0 163.58 53.49"><defs><style>.cls-1{fill:#089de3;}.cls-2,.cls-3{fill:none;stroke:#089de3;stroke-miterlimit:10;stroke-width:2.79px;}.cls-2{stroke-linecap:round;}</style></defs><g id="Layer_2" data-name="Layer 2"><g id="Layer_1-2" data-name="Layer 1"><path class="cls-1" d="M17.42,17.59q6.27,0,6.27,6.41v9.62a1.85,1.85,0,0,1-2.09,2.09,1.86,1.86,0,0,1-2.09-2.12V23.92a1.89,1.89,0,0,0-2.13-2.15H13.91l0,11.85a1.85,1.85,0,0,1-2.09,2.09,1.87,1.87,0,0,1-2.1-2.12V23.92a1.88,1.88,0,0,0-2.11-2.15H4.18V33.56a1.88,1.88,0,0,1-2.12,2.12A1.85,1.85,0,0,1,0,33.56V19.67a1.9,1.9,0,0,1,2.13-2.11Z"/><path class="cls-1" d="M30.71,35.68a1.87,1.87,0,0,1-2.11-2.12V21.77c-1.42,0-2.11-.67-2.09-2a1.9,1.9,0,0,1,2.09-2.16l2.09,0a1.88,1.88,0,0,1,2.09,2.11V33.56A1.85,1.85,0,0,1,30.71,35.68ZM29.55,12.27a1.84,1.84,0,0,0-.77.77,2.06,2.06,0,0,0-.28,1,2,2,0,0,0,.28,1,1.94,1.94,0,0,0,.76.77,2.1,2.1,0,0,0,2.06,0,2,2,0,0,0,.77-.77,2.1,2.1,0,0,0,.27-1,2.16,2.16,0,0,0-.28-1,1.93,1.93,0,0,0-.78-.77,2.07,2.07,0,0,0-1-.27A2.1,2.1,0,0,0,29.55,12.27Z"/><path class="cls-1" d="M47.46,25.26a1.88,1.88,0,0,1-2.13-2.12V21.77H41.89a1.89,1.89,0,0,0-2.13,2.15v9.67a1.86,1.86,0,0,1-2.09,2.12,1.85,1.85,0,0,1-2.09-2.09V24q0-6.41,6.27-6.41l5.57,0a1.83,1.83,0,0,1,2.09,2.06v3.47A1.84,1.84,0,0,1,47.46,25.26Z"/><path class="cls-1" d="M64.2,25.26a1.88,1.88,0,0,1-2.13-2.12V21.77H58.63a1.9,1.9,0,0,0-2.14,2.15v9.67a2.09,2.09,0,1,1-4.18,0V24q0-6.41,6.27-6.41l5.58,0a1.83,1.83,0,0,1,2.09,2.06v3.47A1.84,1.84,0,0,1,64.2,25.26Z"/><path class="cls-1" d="M75.34,17.56h2.77q6.3,0,6.3,6.29v5.42q0,6.4-6.27,6.41H75.28q-6.23,0-6.23-6.27V23.86Q69.05,17.56,75.34,17.56Zm0,4.21a1.83,1.83,0,0,0-2.06,2.08v5.5c0,1.43.69,2.15,2.06,2.15h2.82a1.89,1.89,0,0,0,2.12-2.15V23.79c0-1.34-.71-2-2.12-2Z"/><path class="cls-1" d="M99.08,25.26A1.88,1.88,0,0,1,97,23.14V21.77H93.51a1.9,1.9,0,0,0-2.14,2.15v9.67a2.09,2.09,0,1,1-4.18,0V24q0-6.41,6.28-6.41l5.57,0a1.83,1.83,0,0,1,2.09,2.06v3.47A1.84,1.84,0,0,1,99.08,25.26Z"/><path class="cls-1" d="M136.83,10.62A16.13,16.13,0,1,0,153,26.75,16.13,16.13,0,0,0,136.83,10.62Zm7.6,23.05a1.82,1.82,0,0,1-2.07,2h-6.92q-6.19,0-6.19-6.34V19.85a1.82,1.82,0,0,1,2.06-2.07,1.84,1.84,0,0,1,2.07,2.1v9.56a1.87,1.87,0,0,0,2.1,2.12h4.81V19.88a1.86,1.86,0,0,1,2.11-2.1,1.83,1.83,0,0,1,2,2.1Z"/><path class="cls-2" d="M114,34.47V16.64A12.73,12.73,0,0,1,126.73,3.91h30"/><path class="cls-2" d="M159.67,18v18.9a12.74,12.74,0,0,1-12.73,12.74H116.51"/><circle class="cls-3" cx="159.67" cy="3.91" r="2.52"/><circle class="cls-3" cx="114" cy="49.59" r="2.52"/></g></g></svg>