<svg xmlns="http://www.w3.org/2000/svg" viewBox="0 0 145 145"><defs><style>.cls-1{fill:#089de3;}.cls-2{fill:#4c4c4c;}.cls-3,.cls-4,.cls-5{fill:#fff;}.cls-4{opacity:0.7;}.cls-5{opacity:0.5;}</style></defs><g id="Layer_2" data-name="Layer 2"><g id="Layer_1-2" data-name="Layer 1"><circle class="cls-1" cx="76.16" cy="76.16" r="68.84"/><path class="cls-2" d="M70.53,141.06a70.53,70.53,0,1,1,70.53-70.53A70.61,70.61,0,0,1,70.53,141.06Zm0-137.68a67.15,67.15,0,1,0,67.15,67.15A67.22,67.22,0,0,0,70.53,3.38Z"/><path class="cls-3" d="M107.37,93H33.69a1.59,1.59,0,0,1-1.58-1.59V40.86a1.58,1.58,0,0,1,1.58-1.58h73.68A1.58,1.58,0,0,1,109,40.86V91.45A1.59,1.59,0,0,1,107.37,93ZM35.28,89.87h70.5V42.44H35.28Z"/><path class="cls-3" d="M107.37,83.88H33.69a1.58,1.58,0,0,1-1.58-1.58V40.86a1.58,1.58,0,0,1,1.58-1.58h73.68A1.58,1.58,0,0,1,109,40.86V82.3A1.58,1.58,0,0,1,107.37,83.88ZM35.28,80.72h70.5V42.44H35.28Z"/><path class="cls-3" d="M78.28,101.78H62.78a1.57,1.57,0,0,1-1.58-1.58V91.45a1.58,1.58,0,0,1,1.58-1.58h15.5a1.58,1.58,0,0,1,1.58,1.58v8.75A1.57,1.57,0,0,1,78.28,101.78ZM64.36,98.62H76.7V93H64.36Z"/><path class="cls-3" d="M89.21,101.78h-38a1.58,1.58,0,0,1,0-3.16h38a1.58,1.58,0,1,1,0,3.16Z"/><path class="cls-3" d="M70.53,89.23a2.36,2.36,0,1,1,2.35-2.35A2.35,2.35,0,0,1,70.53,89.23Zm0-3.65a1.3,1.3,0,1,0,1.3,1.3A1.3,1.3,0,0,0,70.53,85.58Z"/><path class="cls-3" d="M75.58,49.75H65.49a1.43,1.43,0,0,0-1.42,1.42V72a1.42,1.42,0,0,0,1.42,1.41H75.58A1.41,1.41,0,0,0,77,72V51.17A1.42,1.42,0,0,0,75.58,49.75ZM75.72,72a.15.15,0,0,1-.14.15H65.49a.15.15,0,0,1-.15-.15V51.17a.14.14,0,0,1,.15-.15h3.74a.26.26,0,0,1-.11-.2.27.27,0,0,1,.27-.26h2.28a.26.26,0,0,1,.26.26.22.22,0,0,1-.1.2h.48a.31.31,0,0,1-.09-.2.31.31,0,1,1,.62,0,.31.31,0,0,1-.09.2h2.83a.14.14,0,0,1,.14.15Z"/><path class="cls-3" d="M67.05,50.39l.19.63.11.39a.56.56,0,0,0,.5.42h5.37a.54.54,0,0,0,.49-.42l.12-.39.19-.63Zm4.62.69H69.39a.25.25,0,0,1-.16-.06.26.26,0,0,1-.11-.2.27.27,0,0,1,.27-.26h2.28a.26.26,0,0,1,.26.26.22.22,0,0,1-.1.2A.23.23,0,0,1,71.67,51.08Zm.86,0a.27.27,0,0,1-.22-.1.31.31,0,0,1-.09-.2.31.31,0,1,1,.62,0,.31.31,0,0,1-.09.2A.26.26,0,0,1,72.53,51.12Z"/><path class="cls-3" d="M64.07,56.17a.26.26,0,0,1-.26-.26V53.26a.27.27,0,1,1,.53,0v2.65A.27.27,0,0,1,64.07,56.17Z"/><path class="cls-3" d="M64.07,59.12a.26.26,0,0,1-.26-.26V57.21a.27.27,0,0,1,.53,0v1.65A.27.27,0,0,1,64.07,59.12Z"/><path class="cls-3" d="M77,56.81a.26.26,0,0,1-.27-.26V54.9a.27.27,0,0,1,.53,0v1.65A.26.26,0,0,1,77,56.81Z"/><circle class="cls-3" cx="83.2" cy="58.21" r="1"/><circle class="cls-4" cx="87.24" cy="58.21" r="1"/><circle class="cls-5" cx="91.27" cy="58.21" r="1"/><circle class="cls-3" cx="83.2" cy="61.58" r="1"/><circle class="cls-4" cx="87.24" cy="61.58" r="1"/><circle class="cls-5" cx="91.27" cy="61.58" r="1"/><circle class="cls-3" cx="83.2" cy="64.94" r="1"/><circle class="cls-4" cx="87.24" cy="64.94" r="1"/><circle class="cls-5" cx="91.27" cy="64.94" r="1"/><circle class="cls-3" cx="57.86" cy="58.21" r="1"/><circle class="cls-4" cx="53.82" cy="58.21" r="1"/><circle class="cls-5" cx="49.79" cy="58.21" r="1"/><circle class="cls-3" cx="57.86" cy="61.58" r="1"/><circle class="cls-4" cx="53.82" cy="61.58" r="1"/><circle class="cls-5" cx="49.79" cy="61.58" r="1"/><circle class="cls-3" cx="57.86" cy="64.94" r="1"/><circle class="cls-4" cx="53.82" cy="64.94" r="1"/><circle class="cls-5" cx="49.79" cy="64.94" r="1"/></g></g></svg>