<svg xmlns="http://www.w3.org/2000/svg" viewBox="0 0 49.45 49"><defs><style>.cls-1{fill:#fff;}</style></defs><g id="Layer_2" data-name="Layer 2"><g id="Layer_1-2" data-name="Layer 1"><path class="cls-1" d="M46.17,49H5.1a3.29,3.29,0,0,1-3.29-3.29V20.89A3.28,3.28,0,0,1,5.1,17.61H46.17a3.28,3.28,0,0,1,3.28,3.28V45.71A3.28,3.28,0,0,1,46.17,49ZM5.1,20.34a.56.56,0,0,0-.56.55V45.71a.56.56,0,0,0,.56.56H46.17a.56.56,0,0,0,.55-.56V20.89a.55.55,0,0,0-.55-.55Z"/><path class="cls-1" d="M3.47,18.9a2.35,2.35,0,0,1-2.29-1.85L.05,11.75A2.34,2.34,0,0,1,1.85,9L43.72.05a2.34,2.34,0,0,1,2.77,1.8l1.13,5.3a2.33,2.33,0,0,1-1.79,2.77h0L4,18.85A2.09,2.09,0,0,1,3.47,18.9Zm-.66-7.33,1,4.53,41.1-8.77-1-4.52ZM45.25,7.25Z"/><rect class="cls-1" x="3.18" y="28.22" width="44.91" height="2.73"/><rect class="cls-1" x="9.48" y="22.88" width="15.09" height="2.73" transform="translate(-12.16 19.15) rotate(-45)"/><rect class="cls-1" x="28.62" y="22.88" width="15.09" height="2.73" transform="translate(-6.55 32.67) rotate(-45)"/></g></g></svg>