<svg xmlns="http://www.w3.org/2000/svg" viewBox="0 0 160 50"><defs><style>.cls-1{fill:#fff;}.cls-2{fill:#4caf50;}.cls-3{fill:#f44336;}.cls-4{fill:#2196f3;}.cls-5{fill:#ffc107;}</style></defs><g id="Layer_2" data-name="Layer 2"><g id="Layer_1-2" data-name="Layer 1"><rect width="160" height="50" rx="5"/><path class="cls-1" d="M58.07,19.23a8.73,8.73,0,0,1-2.84.51,4.78,4.78,0,0,1-3.46-1.22,4.8,4.8,0,0,1-1.29-3.45,4.64,4.64,0,0,1,5-4.77,5.55,5.55,0,0,1,2.3.43l-.29,1a4.76,4.76,0,0,0-2-.4A3.46,3.46,0,0,0,51.74,15a3.4,3.4,0,0,0,3.57,3.73,3.81,3.81,0,0,0,1.59-.25V15.75H55v-1h3Z"/><path class="cls-1" d="M60.59,16.54a2.13,2.13,0,0,0,2.28,2.3,4.37,4.37,0,0,0,1.83-.34l.21.87a5.43,5.43,0,0,1-2.21.41,3.09,3.09,0,0,1-3.26-3.35c0-2,1.18-3.58,3.11-3.58,2.17,0,2.74,1.91,2.74,3.13a3.5,3.5,0,0,1,0,.56Zm3.54-.86a1.72,1.72,0,0,0-1.68-2,2,2,0,0,0-1.85,2Z"/><path class="cls-1" d="M68.24,11.1V13H70v.92H68.24V17.5c0,.82.23,1.29.91,1.29a2.79,2.79,0,0,0,.7-.08l.05.9a2.83,2.83,0,0,1-1.07.17,1.67,1.67,0,0,1-1.3-.51,2.49,2.49,0,0,1-.47-1.73V13.92H66V13h1V11.41Z"/><path class="cls-1" d="M75.58,11.14a.75.75,0,0,1-1.5,0,.74.74,0,0,1,.76-.76A.72.72,0,0,1,75.58,11.14Zm-1.35,8.5V13h1.21v6.64Z"/><path class="cls-1" d="M78.9,11.1V13h1.73v.92H78.9V17.5c0,.82.23,1.29.9,1.29a2.73,2.73,0,0,0,.7-.08l.06.9a2.9,2.9,0,0,1-1.07.17,1.69,1.69,0,0,1-1.31-.51,2.49,2.49,0,0,1-.46-1.73V13.92h-1V13h1V11.41Z"/><path class="cls-1" d="M85,19.64V13.92h-.93V13H85v-.31a3.13,3.13,0,0,1,.77-2.32,2.31,2.31,0,0,1,1.62-.62,2.91,2.91,0,0,1,1,.19l-.17.94a1.64,1.64,0,0,0-.76-.15c-1,0-1.29.9-1.29,1.92V13h1.6v.92h-1.6v5.72Z"/><path class="cls-1" d="M88.9,15.07c0-.78,0-1.45-.06-2.07H89.9l0,1.31h0a2,2,0,0,1,1.84-1.46,1.67,1.67,0,0,1,.34,0V14a1.62,1.62,0,0,0-.41,0,1.7,1.7,0,0,0-1.62,1.55,4.48,4.48,0,0,0,0,.56v3.54H88.9Z"/><path class="cls-1" d="M99.25,16.27a3.24,3.24,0,0,1-3.31,3.52,3.16,3.16,0,0,1-3.18-3.41,3.24,3.24,0,0,1,3.29-3.53A3.15,3.15,0,0,1,99.25,16.27ZM94,16.34c0,1.45.84,2.55,2,2.55s2-1.09,2-2.58c0-1.13-.57-2.55-2-2.55S94,15.07,94,16.34Z"/><path class="cls-1" d="M100.77,14.8c0-.69,0-1.25,0-1.8h1l.06,1.07h0A2.29,2.29,0,0,1,104,12.85a2,2,0,0,1,1.88,1.33h0a2.76,2.76,0,0,1,.74-.86,2.29,2.29,0,0,1,1.47-.47c.88,0,2.18.58,2.18,2.88v3.91h-1.18V15.88c0-1.27-.47-2-1.44-2a1.57,1.57,0,0,0-1.43,1.1,2.11,2.11,0,0,0-.09.6v4.1h-1.18v-4c0-1.05-.47-1.82-1.39-1.82a1.64,1.64,0,0,0-1.49,1.21,1.59,1.59,0,0,0-.1.59v4h-1.18Z"/><path class="cls-1" d="M63.55,40V30.58c0-.83,0-1.8.13-2.93h-.06a13.55,13.55,0,0,1-.44,1.59L58.74,40H57.26L52.8,29.32a12.06,12.06,0,0,1-.44-1.67H52.3c.06.87.09,1.94.09,3.18V40h-2.1V25.4h3.16L57.4,35A10.77,10.77,0,0,1,58,36.92h.07c.12-.4.34-1,.66-1.9l4-9.62h3V40Z"/><path class="cls-1" d="M69,26a1.18,1.18,0,0,1,.38-.92,1.31,1.31,0,0,1,1-.37,1.38,1.38,0,0,1,1,.37,1.27,1.27,0,0,1,0,1.83,1.46,1.46,0,0,1-1.94,0A1.24,1.24,0,0,1,69,26Zm.21,14V29.58h2.22V40Z"/><path class="cls-1" d="M81.89,39.56a5.67,5.67,0,0,1-3,.69,5,5,0,0,1-3.7-1.44A5.18,5.18,0,0,1,73.83,35a5.68,5.68,0,0,1,1.52-4.16,5.41,5.41,0,0,1,4-1.55,5.51,5.51,0,0,1,2.52.5v2.08a4,4,0,0,0-2.41-.81,3.23,3.23,0,0,0-2.47,1,3.88,3.88,0,0,0-1,2.75,3.71,3.71,0,0,0,.9,2.64,3.16,3.16,0,0,0,2.42,1,4.21,4.21,0,0,0,2.49-.85Z"/><path class="cls-1" d="M90.18,31.69a2.36,2.36,0,0,0-1.3-.32,2,2,0,0,0-1.74.94,4.28,4.28,0,0,0-.66,2.5V40H84.26V29.58h2.22v2.07h0a2.81,2.81,0,0,1,2.73-2.25,2.53,2.53,0,0,1,.92.13Z"/><path class="cls-1" d="M90.94,34.88a5.56,5.56,0,0,1,1.46-4.06,5.37,5.37,0,0,1,4-1.49,5,5,0,0,1,3.77,1.44,5.49,5.49,0,0,1,1.38,3.94,5.53,5.53,0,0,1-1.46,4,5.76,5.76,0,0,1-7.72,0A5.34,5.34,0,0,1,90.94,34.88Zm2.25,0A3.92,3.92,0,0,0,94,37.51a2.81,2.81,0,0,0,2.26,1q3,0,3-3.71A4.25,4.25,0,0,0,98.53,32a2.76,2.76,0,0,0-2.24-.94,2.81,2.81,0,0,0-2.28,1A4.18,4.18,0,0,0,93.19,34.84Z"/><path class="cls-1" d="M103.52,37.58a5.36,5.36,0,0,0,3,1c1.38,0,2.07-.43,2.07-1.28a1.07,1.07,0,0,0-.43-.88,8.19,8.19,0,0,0-2-.91,5.19,5.19,0,0,1-2.15-1.31,2.69,2.69,0,0,1-.56-1.74,2.63,2.63,0,0,1,1.21-2.28,5.09,5.09,0,0,1,3-.84,7.12,7.12,0,0,1,2.55.45v2a5,5,0,0,0-2.66-.74,2.37,2.37,0,0,0-1.35.35,1,1,0,0,0-.52.91,1.07,1.07,0,0,0,.38.88,7.24,7.24,0,0,0,1.76.85,5.68,5.68,0,0,1,2.31,1.32,2.56,2.56,0,0,1,.62,1.75,2.69,2.69,0,0,1-1.21,2.33,5.36,5.36,0,0,1-3.17.85,6.9,6.9,0,0,1-2.93-.59Z"/><path class="cls-1" d="M112.46,34.88a5.56,5.56,0,0,1,1.46-4.06,5.37,5.37,0,0,1,4-1.49,5,5,0,0,1,3.77,1.44,5.49,5.49,0,0,1,1.38,3.94,5.53,5.53,0,0,1-1.46,4,5.76,5.76,0,0,1-7.72,0A5.38,5.38,0,0,1,112.46,34.88Zm2.25,0a3.92,3.92,0,0,0,.84,2.67,2.81,2.81,0,0,0,2.26,1q3,0,3-3.71a4.25,4.25,0,0,0-.77-2.73,2.76,2.76,0,0,0-2.24-.94,2.81,2.81,0,0,0-2.28,1A4.24,4.24,0,0,0,114.71,34.84Z"/><path class="cls-1" d="M130.9,26.38a2.71,2.71,0,0,0-1.14-.26c-1.12,0-1.68.67-1.68,2v1.44h2.41v1.75h-2.41V40h-2.21V31.33H124.1V29.58h1.77V28a3.59,3.59,0,0,1,1-2.7,3.64,3.64,0,0,1,2.63-1,4.42,4.42,0,0,1,1.37.18Z"/><path class="cls-1" d="M137.93,39.89a3.65,3.65,0,0,1-1.76.35q-3,0-3-3.23V31.33h-1.77V29.58h1.77V27.14l2.2-.67v3.11h2.53v1.75H135.4v5.3a2.24,2.24,0,0,0,.35,1.4,1.33,1.33,0,0,0,1.1.44,1.87,1.87,0,0,0,1.08-.34Z"/><path class="cls-2" d="M25.83,24.17h12.5V12.5a.83.83,0,0,0-.83-.83H25.83Z"/><path class="cls-3" d="M24.17,24.17V11.67H12.5a.83.83,0,0,0-.83.83V24.17Z"/><path class="cls-4" d="M24.17,25.83H11.67V37.5a.83.83,0,0,0,.83.83H24.17Z"/><path class="cls-5" d="M25.83,25.83v12.5H37.5a.83.83,0,0,0,.83-.83V25.83Z"/></g></g></svg>