<svg xmlns="http://www.w3.org/2000/svg" viewBox="0 0 145 145"><defs><style>.cls-1{fill:#089de3;}.cls-2{fill:#4c4c4c;}.cls-3{fill:#fff;}</style></defs><g id="Layer_2" data-name="Layer 2"><g id="Layer_1-2" data-name="Layer 1"><circle class="cls-1" cx="76.16" cy="76.16" r="68.84"/><path class="cls-2" d="M70.53,141.06a70.53,70.53,0,1,1,70.53-70.53A70.61,70.61,0,0,1,70.53,141.06Zm0-137.68a67.15,67.15,0,1,0,67.15,67.15A67.22,67.22,0,0,0,70.53,3.38Z"/><path class="cls-3" d="M34.71,62.89h2.9a1.16,1.16,0,0,1,1.2,1.19V67a1.16,1.16,0,0,1-1.2,1.19h-2.9A1.16,1.16,0,0,1,33.52,67V64.08A1.16,1.16,0,0,1,34.71,62.89Z"/><path class="cls-3" d="M43.25,62.89h2.9a1.16,1.16,0,0,1,1.2,1.19V67a1.16,1.16,0,0,1-1.2,1.19h-2.9A1.16,1.16,0,0,1,42.06,67V64.08A1.16,1.16,0,0,1,43.25,62.89Z"/><path class="cls-3" d="M51.79,62.89h2.9a1.16,1.16,0,0,1,1.2,1.19V67a1.16,1.16,0,0,1-1.2,1.19h-2.9A1.17,1.17,0,0,1,50.59,67V64.08A1.23,1.23,0,0,1,51.79,62.89Z"/><path class="cls-3" d="M60.33,62.89h2.9a1.16,1.16,0,0,1,1.2,1.19V67a1.16,1.16,0,0,1-1.2,1.19h-2.9A1.17,1.17,0,0,1,59.13,67V64.08A1.23,1.23,0,0,1,60.33,62.89Z"/><path class="cls-3" d="M68.87,62.89h2.9A1.16,1.16,0,0,1,73,64.08V67a1.16,1.16,0,0,1-1.2,1.19h-2.9A1.17,1.17,0,0,1,67.67,67V64.08A1.23,1.23,0,0,1,68.87,62.89Z"/><path class="cls-3" d="M77.41,62.89h2.9a1.16,1.16,0,0,1,1.2,1.19V67a1.16,1.16,0,0,1-1.2,1.19h-2.9A1.17,1.17,0,0,1,76.21,67V64.08A1.23,1.23,0,0,1,77.41,62.89Z"/><path class="cls-3" d="M86,62.89h2.9a1.16,1.16,0,0,1,1.2,1.19V67a1.16,1.16,0,0,1-1.2,1.19H86A1.17,1.17,0,0,1,84.75,67V64.08A1.23,1.23,0,0,1,86,62.89Z"/><path class="cls-3" d="M96.88,62.89h7.6a1.17,1.17,0,0,1,1.2,1.19V67a1.17,1.17,0,0,1-1.2,1.19h-7.6A1.17,1.17,0,0,1,95.68,67V64.08A1.17,1.17,0,0,1,96.88,62.89Z"/><path class="cls-3" d="M60.33,79.37H79a1.16,1.16,0,0,1,1.19,1.2v2.9A1.16,1.16,0,0,1,79,84.66H60.33a1.17,1.17,0,0,1-1.2-1.19v-2.9A1.23,1.23,0,0,1,60.33,79.37Z"/><path class="cls-3" d="M34.71,71.09h2.9a1.16,1.16,0,0,1,1.2,1.19v2.91a1.16,1.16,0,0,1-1.2,1.19h-2.9a1.16,1.16,0,0,1-1.19-1.19V72.28A1.15,1.15,0,0,1,34.71,71.09Z"/><path class="cls-3" d="M43.25,71.09h2.9a1.16,1.16,0,0,1,1.2,1.19v2.91a1.16,1.16,0,0,1-1.2,1.19h-2.9a1.16,1.16,0,0,1-1.19-1.19V72.28A1.15,1.15,0,0,1,43.25,71.09Z"/><path class="cls-3" d="M51.79,71.09h2.9a1.16,1.16,0,0,1,1.2,1.19v2.91a1.16,1.16,0,0,1-1.2,1.19h-2.9a1.17,1.17,0,0,1-1.2-1.19V72.28A1.22,1.22,0,0,1,51.79,71.09Z"/><path class="cls-3" d="M60.33,71.09h2.9a1.16,1.16,0,0,1,1.2,1.19v2.91a1.16,1.16,0,0,1-1.2,1.19h-2.9a1.17,1.17,0,0,1-1.2-1.19V72.28A1.22,1.22,0,0,1,60.33,71.09Z"/><path class="cls-3" d="M68.87,71.09h2.9A1.16,1.16,0,0,1,73,72.28v2.91a1.16,1.16,0,0,1-1.2,1.19h-2.9a1.17,1.17,0,0,1-1.2-1.19V72.28A1.22,1.22,0,0,1,68.87,71.09Z"/><path class="cls-3" d="M77.41,71.09h2.9a1.16,1.16,0,0,1,1.2,1.19v2.91a1.16,1.16,0,0,1-1.2,1.19h-2.9a1.17,1.17,0,0,1-1.2-1.19V72.28A1.22,1.22,0,0,1,77.41,71.09Z"/><path class="cls-3" d="M86,71.09h2.9a1.16,1.16,0,0,1,1.2,1.19v2.91a1.16,1.16,0,0,1-1.2,1.19H86a1.17,1.17,0,0,1-1.2-1.19V72.28A1.22,1.22,0,0,1,86,71.09Z"/><path class="cls-3" d="M34.71,79.37h2.9a1.17,1.17,0,0,1,1.2,1.2v2.9a1.16,1.16,0,0,1-1.2,1.19h-2.9a1.16,1.16,0,0,1-1.19-1.19v-2.9A1.16,1.16,0,0,1,34.71,79.37Z"/><path class="cls-3" d="M43.25,79.37h2.9a1.17,1.17,0,0,1,1.2,1.2v2.9a1.16,1.16,0,0,1-1.2,1.19h-2.9a1.16,1.16,0,0,1-1.19-1.19v-2.9A1.16,1.16,0,0,1,43.25,79.37Z"/><path class="cls-3" d="M51.79,79.37h2.9a1.17,1.17,0,0,1,1.2,1.2v2.9a1.16,1.16,0,0,1-1.2,1.19h-2.9a1.17,1.17,0,0,1-1.2-1.19v-2.9A1.23,1.23,0,0,1,51.79,79.37Z"/><path class="cls-3" d="M86,79.37h2.9a1.17,1.17,0,0,1,1.2,1.2v2.9a1.16,1.16,0,0,1-1.2,1.19H86a1.17,1.17,0,0,1-1.2-1.19v-2.9A1.23,1.23,0,0,1,86,79.37Z"/><path class="cls-3" d="M95.09,71.09H98a1.17,1.17,0,0,1,1.2,1.19v2.91A1.17,1.17,0,0,1,98,76.38h-2.9a1.16,1.16,0,0,1-1.2-1.19V72.28A1.16,1.16,0,0,1,95.09,71.09Z"/><path class="cls-3" d="M95.09,79.37H98a1.17,1.17,0,0,1,1.2,1.2v2.9A1.17,1.17,0,0,1,98,84.66h-2.9a1.16,1.16,0,0,1-1.2-1.19v-2.9A1.17,1.17,0,0,1,95.09,79.37Z"/><path class="cls-3" d="M103.46,71.09h2.9a1.16,1.16,0,0,1,1.19,1.19v2.91a1.16,1.16,0,0,1-1.19,1.19h-2.9a1.16,1.16,0,0,1-1.2-1.19V72.28A1.16,1.16,0,0,1,103.46,71.09Z"/><path class="cls-3" d="M103.46,79.37h2.9a1.16,1.16,0,0,1,1.19,1.2v2.9a1.16,1.16,0,0,1-1.19,1.19h-2.9a1.16,1.16,0,0,1-1.2-1.19v-2.9A1.16,1.16,0,0,1,103.46,79.37Z"/><path class="cls-3" d="M107.35,90.24H33.71a5.78,5.78,0,0,1-5.77-5.77V63.09a5.78,5.78,0,0,1,5.77-5.78h73.64a5.78,5.78,0,0,1,5.77,5.78V84.47A5.78,5.78,0,0,1,107.35,90.24ZM33.71,60a3.08,3.08,0,0,0-3.08,3.08V84.47a3.08,3.08,0,0,0,3.08,3.07h73.64a3.08,3.08,0,0,0,3.07-3.07V63.09A3.08,3.08,0,0,0,107.35,60Z"/><path class="cls-3" d="M110.42,116.42a8,8,0,0,1-8-8V99.24a6,6,0,0,1,5.94-5.95h4.15a6,6,0,0,1,5.94,5.95v9.17A8,8,0,0,1,110.42,116.42ZM108.35,96a3.25,3.25,0,0,0-3.24,3.25v9.17a5.32,5.32,0,1,0,10.63,0V99.24A3.25,3.25,0,0,0,112.5,96Z"/><path class="cls-3" d="M110.42,105.27a1.34,1.34,0,0,1-1.34-1.35V99.49a1.35,1.35,0,1,1,2.69,0v4.43A1.34,1.34,0,0,1,110.42,105.27Z"/></g></g></svg>