<svg xmlns="http://www.w3.org/2000/svg" viewBox="0 0 59.59 49"><defs><style>.cls-1{fill:#fff;}</style></defs><g id="Layer_2" data-name="Layer 2"><g id="Layer_1-2" data-name="Layer 1"><path class="cls-1" d="M29.53,27.27A8.25,8.25,0,1,1,37.78,19,8.26,8.26,0,0,1,29.53,27.27Zm0-14A5.76,5.76,0,1,0,35.29,19,5.76,5.76,0,0,0,29.53,13.27Z"/><path class="cls-1" d="M11.91,31.12a6.67,6.67,0,1,1,6.67-6.67A6.67,6.67,0,0,1,11.91,31.12Zm0-10.85a4.18,4.18,0,1,0,4.18,4.18A4.18,4.18,0,0,0,11.91,20.27Z"/><path class="cls-1" d="M23.77,49H0V39.85a8,8,0,0,1,8-8h7.81a8,8,0,0,1,8,8ZM2.49,46.51H21.28V39.85a5.5,5.5,0,0,0-5.49-5.49H8a5.5,5.5,0,0,0-5.49,5.49Z"/><path class="cls-1" d="M51.71,16.81H43a1.25,1.25,0,0,1,0-2.49h8.67a1.25,1.25,0,0,1,0,2.49Z"/><path class="cls-1" d="M51.71,24H43a1.25,1.25,0,0,1,0-2.49h8.67a1.25,1.25,0,0,1,0,2.49Z"/><path class="cls-1" d="M58,38.14H21.84a1.25,1.25,0,1,1,0-2.49H57.1V2.49H13.15V19a1.25,1.25,0,0,1-2.49,0V1.57A1.57,1.57,0,0,1,12.23,0H58a1.56,1.56,0,0,1,1.56,1.57v35A1.57,1.57,0,0,1,58,38.14Z"/><path class="cls-1" d="M41.67,45.33H28.28V35.64H41.67Zm-10.9-2.49h8.41v-4.7H30.77Z"/><path class="cls-1" d="M48.16,45.33H22.52a1.25,1.25,0,0,1,0-2.49H48.16a1.25,1.25,0,0,1,0,2.49Z"/></g></g></svg>