<svg xmlns="http://www.w3.org/2000/svg" viewBox="0 0 145 145"><defs><style>.cls-1{fill:#089de3;}.cls-2{fill:#4c4c4c;}.cls-3{fill:#fff;}</style></defs><g id="Layer_2" data-name="Layer 2"><g id="Layer_1-2" data-name="Layer 1"><circle class="cls-1" cx="76.16" cy="76.16" r="68.84"/><path class="cls-2" d="M70.53,141.06a70.53,70.53,0,1,1,70.53-70.53A70.61,70.61,0,0,1,70.53,141.06Zm0-137.68a67.15,67.15,0,1,0,67.15,67.15A67.22,67.22,0,0,0,70.53,3.38Z"/><path class="cls-3" d="M62,62.76h5.67a5.66,5.66,0,0,1,2.7.63,4.48,4.48,0,0,1,1.83,1.75,4.83,4.83,0,0,1,.65,2.52,4.08,4.08,0,0,1-.94,2.66A5.34,5.34,0,0,1,69.48,72l0,.15,4.17,6v.17H70.27l-4-5.84H64.88V78.3H62Zm5.65,7a2.22,2.22,0,0,0,1.62-.61,2,2,0,0,0,.63-1.54,2.16,2.16,0,0,0-.59-1.52,2.13,2.13,0,0,0-1.62-.63H64.88v4.3Z"/><path class="cls-3" d="M75.71,62.76h9.86v2.78H78.64v3.6h6.23v2.78H78.64v3.6h6.93V78.3H75.71Z"/><path class="cls-3" d="M91.38,77.57a7.87,7.87,0,0,1-2.94-2.93,8.43,8.43,0,0,1,0-8.22,7.87,7.87,0,0,1,2.94-2.93,8.1,8.1,0,0,1,4.12-1.08A7.51,7.51,0,0,1,101.32,65l-2.06,2a4.71,4.71,0,0,0-3.73-1.76,5.37,5.37,0,0,0-2.65.66A4.79,4.79,0,0,0,91,67.73a6.1,6.1,0,0,0,0,5.6,4.79,4.79,0,0,0,1.88,1.88,5.37,5.37,0,0,0,2.65.66,5.08,5.08,0,0,0,4.1-2l2.08,2A7.73,7.73,0,0,1,99,77.92a8.29,8.29,0,0,1-3.49.73A8.1,8.1,0,0,1,91.38,77.57Z"/><circle class="cls-3" cx="47.29" cy="70.7" r="7.94"/></g></g></svg>