<svg xmlns="http://www.w3.org/2000/svg" viewBox="0 0 350 247.51"><defs><style>.cls-1{fill:#4c4c4c;}.cls-2{fill:#089de3;}</style></defs><g id="Layer_2" data-name="Layer 2"><g id="Layer_1-2" data-name="Layer 1"><path class="cls-1" d="M311.47,0H3.21A3.2,3.2,0,0,0,0,3.21V214.92a3.22,3.22,0,0,0,3.21,3.22H261.7v-6.43H6.42V6.42H308.26V76.67h6.42V3.21A3.2,3.2,0,0,0,311.47,0Z"/><path class="cls-1" d="M311.47,0H3.21A3.2,3.2,0,0,0,0,3.21v173.4a3.21,3.21,0,0,0,3.21,3.21H261.7V173.4H6.42V6.42H308.26V76.67h6.42V3.21A3.2,3.2,0,0,0,311.47,0Z"/><path class="cls-1" d="M189.78,247.51H124.91a3.21,3.21,0,0,1-3.21-3.21V214.92a3.21,3.21,0,0,1,3.21-3.21h64.87a3.21,3.21,0,0,1,3.21,3.21V244.3A3.21,3.21,0,0,1,189.78,247.51Zm-61.66-6.42h58.45v-23H128.12Z"/><path class="cls-1" d="M236.91,247.51H77.77a3.21,3.21,0,0,1,0-6.42H236.91a3.21,3.21,0,0,1,0,6.42Z"/><path class="cls-1" d="M157.34,205.54a9.78,9.78,0,1,1,9.78-9.78A9.79,9.79,0,0,1,157.34,205.54Zm0-15.27a5.5,5.5,0,1,0,5.5,5.49A5.49,5.49,0,0,0,157.34,190.27Z"/><path class="cls-1" d="M257.42,142v18.26a1.6,1.6,0,0,0,1.6-1.6V143.63A1.61,1.61,0,0,0,257.42,142Zm0-41.33v31.09a1.61,1.61,0,0,0,1.6-1.61V102.29A1.6,1.6,0,0,0,257.42,100.69Zm89.37,18.64v15a1.61,1.61,0,0,0,1.6,1.61V117.73A1.6,1.6,0,0,0,346.79,119.33ZM257.42,173.4v44.74h4.28V173.4Zm0-31.38v18.26a1.6,1.6,0,0,0,1.6-1.6V143.63A1.61,1.61,0,0,0,257.42,142Zm0-41.33v31.09a1.61,1.61,0,0,0,1.6-1.61V102.29A1.6,1.6,0,0,0,257.42,100.69Z"/><path class="cls-1" d="M348.39,117.73V84.61a8,8,0,0,0-7.94-7.94H265.36a8,8,0,0,0-7.94,7.94v16.08a1.6,1.6,0,0,1,1.6,1.6v27.88a1.61,1.61,0,0,1-1.6,1.61V142a1.61,1.61,0,0,1,1.6,1.61v15.05a1.6,1.6,0,0,1-1.6,1.6V173.4h4.28V84.61A3.66,3.66,0,0,1,265.36,81h12.37l1.5,4.2A4,4,0,0,0,283,87.77h39.91a4,4,0,0,0,3.72-2.62l1.5-4.2h12.37a3.66,3.66,0,0,1,3.66,3.66v155a3.65,3.65,0,0,1-3.66,3.66H265.36a3.65,3.65,0,0,1-3.66-3.66V218.14h-4.28v21.42a8,8,0,0,0,7.94,7.95h75.09a8,8,0,0,0,7.94-7.95V136a1.61,1.61,0,0,1-1.6-1.61v-15A1.6,1.6,0,0,1,348.39,117.73Zm-37-34.62H294.45a1.07,1.07,0,1,1,0-2.14H311.4a1.07,1.07,0,0,1,0,2.14Zm6.36,1.22A2.29,2.29,0,1,1,320.05,82,2.29,2.29,0,0,1,317.76,84.33Z"/><path class="cls-1" d="M350,119.33v15a1.61,1.61,0,1,1-3.21,0v-15a1.61,1.61,0,0,1,3.21,0Z"/><path class="cls-1" d="M259,143.63v15.05a1.61,1.61,0,0,1-3.21,0V143.63a1.61,1.61,0,1,1,3.21,0Z"/><path class="cls-1" d="M259,102.29v27.88a1.61,1.61,0,1,1-3.21,0V102.29a1.61,1.61,0,0,1,3.21,0Z"/><path class="cls-2" d="M157.34,72.65A17.26,17.26,0,1,0,174.6,89.91,17.26,17.26,0,0,0,157.34,72.65Zm8.13,24.67a2,2,0,0,1-2.22,2.18h-7.4q-6.63,0-6.63-6.79V82.53a2.21,2.21,0,1,1,4.42,0V92.79a2,2,0,0,0,2.25,2.27H161V82.56a2,2,0,0,1,2.26-2.25,2,2,0,0,1,2.17,2.25Z"/><path class="cls-2" d="M132.89,99.66a1.49,1.49,0,0,1-1.49-1.49V79.1A15.15,15.15,0,0,1,146.53,64h32.1a1.49,1.49,0,1,1,0,3h-32.1A12.15,12.15,0,0,0,134.39,79.1V98.17A1.5,1.5,0,0,1,132.89,99.66Z"/><path class="cls-2" d="M168.15,115.84H135.59a1.49,1.49,0,1,1,0-3h32.56a12.15,12.15,0,0,0,12.15-12.14V80.49a1.49,1.49,0,0,1,3,0v20.23A15.14,15.14,0,0,1,168.15,115.84Z"/><path class="cls-2" d="M181.79,69.65A4.19,4.19,0,1,1,186,65.46,4.2,4.2,0,0,1,181.79,69.65Zm0-5.39a1.2,1.2,0,1,0,1.2,1.2A1.21,1.21,0,0,0,181.79,64.26Z"/><path class="cls-2" d="M132.89,118.54a4.19,4.19,0,1,1,4.19-4.19A4.19,4.19,0,0,1,132.89,118.54Zm0-5.39a1.21,1.21,0,1,0,1.21,1.2A1.2,1.2,0,0,0,132.89,113.15Z"/><path class="cls-2" d="M303.31,153.37a8.72,8.72,0,1,0,8.71,8.72A8.71,8.71,0,0,0,303.31,153.37Zm4.1,12.46a1,1,0,0,1-1.12,1.1h-3.74q-3.35,0-3.35-3.42v-5.14a1.12,1.12,0,1,1,2.24,0v5.17a1,1,0,0,0,1.14,1.15h2.6v-6.32a1,1,0,0,1,1.14-1.13c.73,0,1.09.38,1.09,1.13Z"/><path class="cls-2" d="M291,167a.74.74,0,0,1-.75-.75v-9.63a7.64,7.64,0,0,1,7.63-7.64h16.22a.75.75,0,0,1,0,1.5H297.84a6.14,6.14,0,0,0-6.13,6.14v9.63A.75.75,0,0,1,291,167Z"/><path class="cls-2" d="M308.77,175.19H292.32a.76.76,0,0,1,0-1.51h16.45a6.14,6.14,0,0,0,6.13-6.13V157.33a.76.76,0,0,1,1.51,0v10.22A7.65,7.65,0,0,1,308.77,175.19Z"/><path class="cls-2" d="M315.65,151.85a2.11,2.11,0,1,1,2.12-2.11A2.12,2.12,0,0,1,315.65,151.85Zm0-2.72a.6.6,0,0,0-.6.61.61.61,0,1,0,.6-.61Z"/><path class="cls-2" d="M291,176.55a2.12,2.12,0,1,1,2.11-2.12A2.11,2.11,0,0,1,291,176.55Zm0-2.72a.61.61,0,1,0,0,1.21.61.61,0,1,0,0-1.21Z"/></g></g></svg>