<svg xmlns="http://www.w3.org/2000/svg" viewBox="0 0 145 145"><defs><style>.cls-1{fill:#089de3;}.cls-2{fill:#fff;}.cls-3{fill:#4c4c4c;}</style></defs><g id="Layer_2" data-name="Layer 2"><g id="Layer_1-2" data-name="Layer 1"><circle class="cls-1" cx="76.16" cy="76.16" r="68.84"/><path class="cls-2" d="M101.71,103.4H95A1.69,1.69,0,1,1,95,100H100V95a1.69,1.69,0,1,1,3.37,0v6.75A1.68,1.68,0,0,1,101.71,103.4Z"/><path class="cls-2" d="M80.09,103.4H65.22a1.69,1.69,0,1,1,0-3.37H80.09a1.69,1.69,0,1,1,0,3.37Zm-29.64-.93a1.62,1.62,0,0,1-.56-.1,18.42,18.42,0,0,1-11.2-11.19,1.69,1.69,0,1,1,3.19-1.12A15,15,0,0,0,51,99.19a1.69,1.69,0,0,1-.56,3.28ZM39.34,77.54a1.68,1.68,0,0,1-1.68-1.68V61A1.69,1.69,0,0,1,41,61V75.86A1.68,1.68,0,0,1,39.34,77.54Z"/><path class="cls-2" d="M39.34,47.79a1.69,1.69,0,0,1-1.68-1.69V39.34a1.68,1.68,0,0,1,1.68-1.68H46.1a1.69,1.69,0,1,1,0,3.37H41V46.1A1.69,1.69,0,0,1,39.34,47.79Z"/><path class="cls-2" d="M101.71,81.76A1.68,1.68,0,0,1,100,80.07V65.2a1.69,1.69,0,0,1,3.37,0V80.07A1.68,1.68,0,0,1,101.71,81.76Zm-.93-29.63A1.69,1.69,0,0,1,99.18,51a15.07,15.07,0,0,0-9.13-9.13,1.69,1.69,0,1,1,1.12-3.18,18.45,18.45,0,0,1,11.2,11.19,1.69,1.69,0,0,1-1,2.16A1.87,1.87,0,0,1,100.78,52.13ZM75.84,41H61a1.69,1.69,0,1,1,0-3.37H75.84a1.69,1.69,0,1,1,0,3.37Z"/><path class="cls-2" d="M39.34,41a1.68,1.68,0,0,1-1.68-1.69V32.43a1.69,1.69,0,1,1,3.37,0v6.91A1.68,1.68,0,0,1,39.34,41Z"/><path class="cls-2" d="M39.34,41H32.43a1.69,1.69,0,1,1,0-3.37h6.91a1.69,1.69,0,1,1,0,3.37Z"/><path class="cls-2" d="M101.71,110.32a1.68,1.68,0,0,1-1.68-1.69v-6.92a1.69,1.69,0,0,1,3.37,0v6.92A1.68,1.68,0,0,1,101.71,110.32Z"/><path class="cls-2" d="M108.63,103.4h-6.92a1.69,1.69,0,0,1,0-3.37h6.92a1.69,1.69,0,1,1,0,3.37Z"/><path class="cls-3" d="M70.53,141.06a70.53,70.53,0,1,1,70.53-70.53A70.61,70.61,0,0,1,70.53,141.06Zm0-137.68a67.15,67.15,0,1,0,67.15,67.15A67.22,67.22,0,0,0,70.53,3.38Z"/></g></g></svg>