<svg xmlns="http://www.w3.org/2000/svg" viewBox="0 0 51.35 49"><defs><style>.cls-1{fill:#fff;}</style></defs><g id="Layer_2" data-name="Layer 2"><g id="Layer_1-2" data-name="Layer 1"><path class="cls-1" d="M20.89,38a1.38,1.38,0,0,1-.71-.19,1.44,1.44,0,0,1-.72-1.24V23.81a1.44,1.44,0,0,1,2.15-1.24L32.67,29a1.44,1.44,0,0,1,.71,1.23,1.43,1.43,0,0,1-.71,1.24L21.6,37.82A1.38,1.38,0,0,1,20.89,38ZM22,25.81v8.77l7.6-4.38Zm9.33,5.39h0Z"/><path class="cls-1" d="M41.17,49h-31A10.2,10.2,0,0,1,0,38.82V19.46A10.2,10.2,0,0,1,10.18,9.28h31A10.2,10.2,0,0,1,51.35,19.46V38.82A10.2,10.2,0,0,1,41.17,49Zm-31-37.13a7.6,7.6,0,0,0-7.6,7.59V38.82a7.61,7.61,0,0,0,7.6,7.6h31a7.61,7.61,0,0,0,7.6-7.6V19.46a7.6,7.6,0,0,0-7.6-7.59Z"/><path class="cls-1" d="M33.72,11.87a1.39,1.39,0,0,1-.64-.17,1.3,1.3,0,0,1-.48-1.77l4.47-7.81A1.29,1.29,0,1,1,39.31,3.4l-4.46,7.82A1.32,1.32,0,0,1,33.72,11.87Z"/><path class="cls-1" d="M16.35,8.87a1.31,1.31,0,0,1-1.13-.66L11.66,1.93A1.29,1.29,0,0,1,13.91.65l3.56,6.29A1.29,1.29,0,0,1,17,8.7,1.32,1.32,0,0,1,16.35,8.87Z"/></g></g></svg>