<svg xmlns="http://www.w3.org/2000/svg" viewBox="0 0 42.96 40"><g id="Layer_2" data-name="Layer 2"><g id="Layer_1-2" data-name="Layer 1"><path d="M41.17,10.54v21.4a.89.89,0,0,1-.89.9H2.69a.9.9,0,0,1-.9-.9V6.88A.89.89,0,0,1,2.69,6h21.7a.89.89,0,0,0,.89-.9h0a.89.89,0,0,0-.89-.89H2.69A2.68,2.68,0,0,0,0,6.88V31.94a2.68,2.68,0,0,0,2.69,2.69H17.9v1.93l-10,1.66a.9.9,0,0,0-.74,1,.91.91,0,0,0,.89.75H8.2l10.67-1.78h5.22L34.76,40h.15a.9.9,0,0,0,.14-1.78l-10-1.66V34.63H40.28A2.69,2.69,0,0,0,43,31.94V10.54a.89.89,0,0,0-.89-.9h0A.9.9,0,0,0,41.17,10.54Z"/><rect x="19.69" y="34.63" width="3.58" height="1.79"/><path d="M20.14,14.94H14.77a.9.9,0,1,0,0,1.79h1.79V23a.9.9,0,1,0,1.79,0V16.73h1.79a.9.9,0,1,0,0-1.79Z"/><path d="M28.51,15a.89.89,0,0,0-1.15.53l-1.85,4.92-1.85-4.92a.89.89,0,1,0-1.67.63l2.68,7.16a.9.9,0,0,0,1.68,0L29,16.15A.9.9,0,0,0,28.51,15Z"/><path d="M37,8.54a1.53,1.53,0,1,1-2.17,0,1.54,1.54,0,0,1,2.17,0Z"/><path d="M39.69,7a.84.84,0,0,0,0-1.16,5.32,5.32,0,0,0-7.53,0A.82.82,0,1,0,33.32,7a3.68,3.68,0,0,1,5.21,0,.82.82,0,0,0,1.16,0Z"/><path d="M29.12,2.82A.82.82,0,0,0,30.28,4,8,8,0,0,1,41.57,4a.81.81,0,0,0,1.15,0,.82.82,0,0,0,0-1.16,9.61,9.61,0,0,0-13.6,0Z"/></g></g></svg>