<svg xmlns="http://www.w3.org/2000/svg" viewBox="0 0 32.87 32.87"><defs><style>.cls-1{fill:#1da1f2;}.cls-2{fill:#fff;}</style></defs><g id="Layer_2" data-name="Layer 2"><g id="Layer_1-2" data-name="Layer 1"><path class="cls-1" d="M32.87,16.44A16.44,16.44,0,1,1,16.44,0,16.44,16.44,0,0,1,32.87,16.44Z"/><path class="cls-2" d="M26.5,11.81a7.74,7.74,0,0,1-2.25.62A4,4,0,0,0,26,10.26a8,8,0,0,1-2.5,1,3.93,3.93,0,0,0-6.8,2.69,3.68,3.68,0,0,0,.11.89,11.12,11.12,0,0,1-8.1-4.1,3.87,3.87,0,0,0-.53,2A3.91,3.91,0,0,0,9.9,15.93a3.85,3.85,0,0,1-1.78-.49v.05a3.94,3.94,0,0,0,3.15,3.85,3.82,3.82,0,0,1-1,.14,3.64,3.64,0,0,1-.74-.07,3.93,3.93,0,0,0,3.67,2.73,7.9,7.9,0,0,1-4.88,1.68c-.32,0-.63,0-.94-.05a11.18,11.18,0,0,0,17.2-9.42c0-.17,0-.34,0-.5a7.92,7.92,0,0,0,2-2Z"/></g></g></svg>