<svg xmlns="http://www.w3.org/2000/svg" viewBox="0 0 145 145"><defs><style>.cls-1{fill:#089de3;}.cls-2{fill:#4c4c4c;}.cls-3{fill:#fff;}</style></defs><g id="Layer_2" data-name="Layer 2"><g id="Layer_1-2" data-name="Layer 1"><circle class="cls-1" cx="76.16" cy="76.16" r="68.84"/><path class="cls-2" d="M70.53,141.06a70.53,70.53,0,1,1,70.53-70.53A70.61,70.61,0,0,1,70.53,141.06Zm0-137.68a67.15,67.15,0,1,0,67.15,67.15A67.22,67.22,0,0,0,70.53,3.38Z"/><path class="cls-3" d="M98.6,79.79H42.46a5.16,5.16,0,0,1-5.15-5.15v-33a5.15,5.15,0,0,1,5.15-5.14H98.6a5.15,5.15,0,0,1,5.15,5.14v33A5.16,5.16,0,0,1,98.6,79.79ZM42.46,39.89a1.76,1.76,0,0,0-1.77,1.76v33a1.77,1.77,0,0,0,1.77,1.77H98.6a1.77,1.77,0,0,0,1.77-1.77v-33a1.76,1.76,0,0,0-1.77-1.76Z"/><path class="cls-3" d="M70.94,62.89a3.81,3.81,0,0,1-1.53-.31,5.29,5.29,0,0,1-3.66-4.28c-.06-.27-.12-.6-.18-1a10.61,10.61,0,0,0-.63-2.53.67.67,0,0,0-.67-.48c-1.69-.12-5.71,2.31-8.32,6.59a1.69,1.69,0,1,1-2.88-1.76c3-4.94,7.94-8.47,11.45-8.2a4,4,0,0,1,3.54,2.55,14.26,14.26,0,0,1,.85,3.29c0,.28.08.52.12.71.29,1.18.35,1.4,1.7,2,.25.11,1.07.14,3.35-1.77a3.51,3.51,0,0,1,.76-.54,1.68,1.68,0,0,1,1.63,2.94l-.22.19C75.25,61.13,73.16,62.89,70.94,62.89Z"/><path class="cls-3" d="M70.53,104.55a1.69,1.69,0,0,1-1.69-1.69V78.1a1.69,1.69,0,0,1,3.38,0v24.76A1.69,1.69,0,0,1,70.53,104.55Z"/><path class="cls-3" d="M45.75,97.3a1.7,1.7,0,0,1-1.19-2.89L62.07,76.9a1.69,1.69,0,1,1,2.38,2.39L46.94,96.8A1.68,1.68,0,0,1,45.75,97.3Z"/><path class="cls-3" d="M95.31,97.3a1.69,1.69,0,0,1-1.2-.5L76.6,79.29A1.69,1.69,0,1,1,79,76.9L96.5,94.41a1.7,1.7,0,0,1-1.19,2.89Z"/><path class="cls-3" d="M85.26,67.15a1.7,1.7,0,0,1-1.51-.93l-4.32-8.53a1.69,1.69,0,0,1,3-1.52l4.32,8.53A1.67,1.67,0,0,1,86,67,1.59,1.59,0,0,1,85.26,67.15Z"/></g></g></svg>